<svg width="398" height="157" viewBox="0 0 398 157" fill="none" xmlns="http://www.w3.org/2000/svg">
<path d="M33.7301 12.2038L49.0244 30.8052L73.5308 21.9386L58.4768 42.3015L73.7711 60.9028L49.173 54.8864L34.119 75.2492L33.9705 51.168L9.3723 45.1516L33.8787 36.285L33.7301 12.2038Z" fill="#440028"/>
<mask id="path-2-outside-1_211_199" maskUnits="userSpaceOnUse" x="24" y="92" width="374" height="65" fill="black">
<rect fill="white" x="24" y="92" width="374" height="65"/>
<path d="M30.9 139V104H45.5C47.7333 104 49.6167 104.333 51.15 105C52.6833 105.667 53.8333 106.667 54.6 108C55.4 109.3 55.8 110.9 55.8 112.8C55.8 114.7 55.2667 116.317 54.2 117.65C53.1667 118.983 51.7167 119.9 49.85 120.4V119.4C51.4167 119.733 52.7833 120.333 53.95 121.2C55.1167 122.033 56.0167 123.083 56.65 124.35C57.3167 125.617 57.65 127.067 57.65 128.7C57.65 130.367 57.3833 131.85 56.85 133.15C56.35 134.417 55.5833 135.483 54.55 136.35C53.55 137.217 52.3333 137.883 50.9 138.35C49.4667 138.783 47.8333 139 46 139H30.9ZM36.3 133.8H45.7C47.0667 133.8 48.2167 133.6 49.15 133.2C50.1167 132.8 50.85 132.217 51.35 131.45C51.8833 130.65 52.15 129.7 52.15 128.6C52.15 127.567 51.8667 126.683 51.3 125.95C50.7667 125.217 50 124.667 49 124.3C48 123.9 46.8167 123.7 45.45 123.7H36.3V133.8ZM36.3 118.5H45.2C46.2 118.5 47.0833 118.3 47.85 117.9C48.65 117.5 49.2667 116.95 49.7 116.25C50.1667 115.55 50.4 114.75 50.4 113.85C50.4 112.35 49.9 111.2 48.9 110.4C47.9 109.6 46.4667 109.2 44.6 109.2H36.3V118.5ZM73.6844 139.5C71.5177 139.5 69.5344 138.9 67.7344 137.7C65.9677 136.5 64.551 134.867 63.4844 132.8C62.4177 130.733 61.8844 128.4 61.8844 125.8C61.8844 123.167 62.4177 120.833 63.4844 118.8C64.5844 116.733 66.051 115.117 67.8844 113.95C69.751 112.783 71.8344 112.2 74.1344 112.2C75.501 112.2 76.751 112.4 77.8844 112.8C79.0177 113.2 80.001 113.767 80.8344 114.5C81.701 115.2 82.401 116.017 82.9344 116.95C83.501 117.883 83.851 118.883 83.9844 119.95L82.8344 119.55V112.75H88.0344V139H82.8344V132.75L84.0344 132.4C83.8344 133.3 83.4177 134.183 82.7844 135.05C82.1844 135.883 81.401 136.633 80.4344 137.3C79.501 137.967 78.451 138.5 77.2844 138.9C76.151 139.3 74.951 139.5 73.6844 139.5ZM75.0344 134.75C76.601 134.75 77.9844 134.367 79.1844 133.6C80.3844 132.833 81.3177 131.783 81.9844 130.45C82.6844 129.083 83.0344 127.533 83.0344 125.8C83.0344 124.1 82.6844 122.583 81.9844 121.25C81.3177 119.917 80.3844 118.867 79.1844 118.1C77.9844 117.333 76.601 116.95 75.0344 116.95C73.501 116.95 72.1344 117.333 70.9344 118.1C69.7677 118.867 68.8344 119.917 68.1344 121.25C67.4677 122.583 67.1344 124.1 67.1344 125.8C67.1344 127.533 67.4677 129.083 68.1344 130.45C68.8344 131.783 69.7677 132.833 70.9344 133.6C72.1344 134.367 73.501 134.75 75.0344 134.75ZM99.925 130.8L99.675 125.2L112.225 112.75H119.175L99.925 130.8ZM95.225 139V102H100.375V139H95.225ZM112.925 139L103.025 127.45L106.675 124.1L119.525 139H112.925ZM134.77 139.5C132.07 139.5 129.67 138.933 127.57 137.8C125.503 136.633 123.87 135.05 122.67 133.05C121.503 131.05 120.92 128.75 120.92 126.15C120.92 124.083 121.253 122.2 121.92 120.5C122.587 118.8 123.503 117.333 124.67 116.1C125.87 114.833 127.287 113.867 128.92 113.2C130.587 112.5 132.387 112.15 134.32 112.15C136.02 112.15 137.603 112.483 139.07 113.15C140.537 113.783 141.803 114.667 142.87 115.8C143.97 116.933 144.803 118.283 145.37 119.85C145.97 121.383 146.253 123.067 146.22 124.9L146.17 127.1H124.72L123.57 123H141.72L140.97 123.85V122.65C140.87 121.55 140.503 120.567 139.87 119.7C139.237 118.833 138.437 118.15 137.47 117.65C136.503 117.15 135.453 116.9 134.32 116.9C132.52 116.9 131.003 117.25 129.77 117.95C128.537 118.617 127.603 119.617 126.97 120.95C126.337 122.25 126.02 123.867 126.02 125.8C126.02 127.633 126.403 129.233 127.17 130.6C127.937 131.933 129.02 132.967 130.42 133.7C131.82 134.433 133.437 134.8 135.27 134.8C136.57 134.8 137.77 134.583 138.87 134.15C140.003 133.717 141.22 132.933 142.52 131.8L145.12 135.45C144.32 136.25 143.337 136.95 142.17 137.55C141.037 138.15 139.82 138.633 138.52 139C137.253 139.333 136.003 139.5 134.77 139.5ZM160.567 139.5C158.367 139.5 156.383 139.117 154.617 138.35C152.85 137.583 151.383 136.45 150.217 134.95L153.717 131.95C154.717 133.117 155.8 133.967 156.967 134.5C158.167 135 159.517 135.25 161.017 135.25C161.617 135.25 162.167 135.183 162.667 135.05C163.2 134.883 163.65 134.65 164.017 134.35C164.417 134.05 164.717 133.7 164.917 133.3C165.117 132.867 165.217 132.4 165.217 131.9C165.217 131.033 164.9 130.333 164.267 129.8C163.933 129.567 163.4 129.317 162.667 129.05C161.967 128.75 161.05 128.45 159.917 128.15C157.983 127.65 156.4 127.083 155.167 126.45C153.933 125.817 152.983 125.1 152.317 124.3C151.817 123.667 151.45 122.983 151.217 122.25C150.983 121.483 150.867 120.65 150.867 119.75C150.867 118.65 151.1 117.65 151.567 116.75C152.067 115.817 152.733 115.017 153.567 114.35C154.433 113.65 155.433 113.117 156.567 112.75C157.733 112.383 158.967 112.2 160.267 112.2C161.5 112.2 162.717 112.367 163.917 112.7C165.15 113.033 166.283 113.517 167.317 114.15C168.35 114.783 169.217 115.533 169.917 116.4L166.967 119.65C166.333 119.017 165.633 118.467 164.867 118C164.133 117.5 163.383 117.117 162.617 116.85C161.85 116.583 161.15 116.45 160.517 116.45C159.817 116.45 159.183 116.517 158.617 116.65C158.05 116.783 157.567 116.983 157.167 117.25C156.8 117.517 156.517 117.85 156.317 118.25C156.117 118.65 156.017 119.1 156.017 119.6C156.05 120.033 156.15 120.45 156.317 120.85C156.517 121.217 156.783 121.533 157.117 121.8C157.483 122.067 158.033 122.35 158.767 122.65C159.5 122.95 160.433 123.233 161.567 123.5C163.233 123.933 164.6 124.417 165.667 124.95C166.767 125.45 167.633 126.033 168.267 126.7C168.933 127.333 169.4 128.067 169.667 128.9C169.933 129.733 170.067 130.667 170.067 131.7C170.067 133.2 169.633 134.55 168.767 135.75C167.933 136.917 166.8 137.833 165.367 138.5C163.933 139.167 162.333 139.5 160.567 139.5ZM203.556 139.5C202.423 139.5 201.29 139.317 200.156 138.95C199.056 138.583 198.04 138.1 197.106 137.5C196.206 136.867 195.44 136.183 194.806 135.45C194.206 134.683 193.806 133.917 193.606 133.15L194.906 132.45V138.85H189.756V102H194.906V118.75L194.106 118.3C194.273 117.533 194.64 116.8 195.206 116.1C195.773 115.367 196.49 114.717 197.356 114.15C198.256 113.55 199.223 113.083 200.256 112.75C201.29 112.383 202.34 112.2 203.406 112.2C205.773 112.2 207.873 112.783 209.706 113.95C211.54 115.117 212.99 116.733 214.056 118.8C215.123 120.833 215.656 123.167 215.656 125.8C215.656 128.433 215.123 130.783 214.056 132.85C213.023 134.917 211.59 136.55 209.756 137.75C207.923 138.917 205.856 139.5 203.556 139.5ZM202.706 134.8C204.24 134.8 205.606 134.417 206.806 133.65C208.006 132.85 208.956 131.783 209.656 130.45C210.356 129.083 210.706 127.533 210.706 125.8C210.706 124.1 210.356 122.583 209.656 121.25C208.99 119.883 208.056 118.817 206.856 118.05C205.656 117.283 204.273 116.9 202.706 116.9C201.14 116.9 199.756 117.283 198.556 118.05C197.356 118.817 196.406 119.883 195.706 121.25C195.006 122.583 194.656 124.1 194.656 125.8C194.656 127.533 195.006 129.083 195.706 130.45C196.406 131.783 197.356 132.85 198.556 133.65C199.756 134.417 201.14 134.8 202.706 134.8ZM224.674 150.5L229.974 138.25L230.024 142.35L216.924 112.75H222.924L231.124 132.05C231.29 132.383 231.49 132.9 231.724 133.6C231.957 134.267 232.157 134.933 232.324 135.6L231.024 135.9C231.29 135.2 231.54 134.5 231.774 133.8C232.04 133.1 232.29 132.4 232.524 131.7L239.374 112.75H245.474L234.674 139L230.224 150.5H224.674Z"/>
<path d="M270.34 128.75L268.14 121.6L285.49 104H295.54L270.34 128.75ZM264.14 139V104H272.64V139H264.14ZM286.59 139L273.59 121.9L279.34 116.95L296.49 139H286.59ZM307.807 139.45C305.574 139.45 303.574 138.867 301.807 137.7C300.074 136.5 298.69 134.867 297.657 132.8C296.624 130.7 296.107 128.333 296.107 125.7C296.107 123 296.624 120.617 297.657 118.55C298.69 116.483 300.107 114.867 301.907 113.7C303.707 112.5 305.757 111.9 308.057 111.9C309.324 111.9 310.474 112.083 311.507 112.45C312.574 112.817 313.507 113.333 314.307 114C315.107 114.633 315.79 115.383 316.357 116.25C316.924 117.083 317.34 117.983 317.607 118.95L315.957 118.75V112.45H323.907V139H315.807V132.6L317.607 132.55C317.34 133.483 316.907 134.367 316.307 135.2C315.707 136.033 314.974 136.767 314.107 137.4C313.24 138.033 312.274 138.533 311.207 138.9C310.14 139.267 309.007 139.45 307.807 139.45ZM310.007 132.7C311.24 132.7 312.307 132.417 313.207 131.85C314.107 131.283 314.807 130.483 315.307 129.45C315.807 128.383 316.057 127.133 316.057 125.7C316.057 124.267 315.807 123.033 315.307 122C314.807 120.933 314.107 120.117 313.207 119.55C312.307 118.95 311.24 118.65 310.007 118.65C308.807 118.65 307.757 118.95 306.857 119.55C305.99 120.117 305.307 120.933 304.807 122C304.307 123.033 304.057 124.267 304.057 125.7C304.057 127.133 304.307 128.383 304.807 129.45C305.307 130.483 305.99 131.283 306.857 131.85C307.757 132.417 308.807 132.7 310.007 132.7ZM333.166 139V105.75H341.166V139H333.166ZM328.466 119.45V112.45H346.316V119.45H328.466ZM351.338 139V112.45H359.338V139H351.338ZM355.338 107.2C353.838 107.2 352.655 106.85 351.788 106.15C350.955 105.417 350.538 104.383 350.538 103.05C350.538 101.85 350.971 100.867 351.838 100.1C352.705 99.3333 353.871 98.95 355.338 98.95C356.838 98.95 358.005 99.3167 358.838 100.05C359.671 100.75 360.088 101.75 360.088 103.05C360.088 104.283 359.655 105.283 358.788 106.05C357.955 106.817 356.805 107.2 355.338 107.2ZM379.505 139.5C376.571 139.5 374.021 138.917 371.855 137.75C369.688 136.55 368.005 134.933 366.805 132.9C365.605 130.833 365.005 128.483 365.005 125.85C365.005 123.817 365.338 121.95 366.005 120.25C366.671 118.55 367.605 117.083 368.805 115.85C370.005 114.583 371.421 113.617 373.055 112.95C374.721 112.25 376.538 111.9 378.505 111.9C380.371 111.9 382.071 112.233 383.605 112.9C385.171 113.567 386.521 114.5 387.655 115.7C388.788 116.9 389.655 118.317 390.255 119.95C390.855 121.583 391.121 123.367 391.055 125.3L391.005 127.45H369.855L368.705 122.95H384.505L383.655 123.9V122.9C383.588 122.067 383.321 121.333 382.855 120.7C382.421 120.033 381.838 119.517 381.105 119.15C380.371 118.783 379.538 118.6 378.605 118.6C377.305 118.6 376.188 118.867 375.255 119.4C374.355 119.9 373.671 120.65 373.205 121.65C372.738 122.617 372.505 123.817 372.505 125.25C372.505 126.717 372.805 128 373.405 129.1C374.038 130.167 374.938 131 376.105 131.6C377.305 132.2 378.721 132.5 380.355 132.5C381.488 132.5 382.488 132.333 383.355 132C384.255 131.667 385.221 131.1 386.255 130.3L390.005 135.6C388.971 136.5 387.871 137.233 386.705 137.8C385.538 138.367 384.338 138.783 383.105 139.05C381.905 139.35 380.705 139.5 379.505 139.5Z"/>
</mask>
<path d="M30.9 139V104H45.5C47.7333 104 49.6167 104.333 51.15 105C52.6833 105.667 53.8333 106.667 54.6 108C55.4 109.3 55.8 110.9 55.8 112.8C55.8 114.7 55.2667 116.317 54.2 117.65C53.1667 118.983 51.7167 119.9 49.85 120.4V119.4C51.4167 119.733 52.7833 120.333 53.95 121.2C55.1167 122.033 56.0167 123.083 56.65 124.35C57.3167 125.617 57.65 127.067 57.65 128.7C57.65 130.367 57.3833 131.85 56.85 133.15C56.35 134.417 55.5833 135.483 54.55 136.35C53.55 137.217 52.3333 137.883 50.9 138.35C49.4667 138.783 47.8333 139 46 139H30.9ZM36.3 133.8H45.7C47.0667 133.8 48.2167 133.6 49.15 133.2C50.1167 132.8 50.85 132.217 51.35 131.45C51.8833 130.65 52.15 129.7 52.15 128.6C52.15 127.567 51.8667 126.683 51.3 125.95C50.7667 125.217 50 124.667 49 124.3C48 123.9 46.8167 123.7 45.45 123.7H36.3V133.8ZM36.3 118.5H45.2C46.2 118.5 47.0833 118.3 47.85 117.9C48.65 117.5 49.2667 116.95 49.7 116.25C50.1667 115.55 50.4 114.75 50.4 113.85C50.4 112.35 49.9 111.2 48.9 110.4C47.9 109.6 46.4667 109.2 44.6 109.2H36.3V118.5ZM73.6844 139.5C71.5177 139.5 69.5344 138.9 67.7344 137.7C65.9677 136.5 64.551 134.867 63.4844 132.8C62.4177 130.733 61.8844 128.4 61.8844 125.8C61.8844 123.167 62.4177 120.833 63.4844 118.8C64.5844 116.733 66.051 115.117 67.8844 113.95C69.751 112.783 71.8344 112.2 74.1344 112.2C75.501 112.2 76.751 112.4 77.8844 112.8C79.0177 113.2 80.001 113.767 80.8344 114.5C81.701 115.2 82.401 116.017 82.9344 116.95C83.501 117.883 83.851 118.883 83.9844 119.95L82.8344 119.55V112.75H88.0344V139H82.8344V132.75L84.0344 132.4C83.8344 133.3 83.4177 134.183 82.7844 135.05C82.1844 135.883 81.401 136.633 80.4344 137.3C79.501 137.967 78.451 138.5 77.2844 138.9C76.151 139.3 74.951 139.5 73.6844 139.5ZM75.0344 134.75C76.601 134.75 77.9844 134.367 79.1844 133.6C80.3844 132.833 81.3177 131.783 81.9844 130.45C82.6844 129.083 83.0344 127.533 83.0344 125.8C83.0344 124.1 82.6844 122.583 81.9844 121.25C81.3177 119.917 80.3844 118.867 79.1844 118.1C77.9844 117.333 76.601 116.95 75.0344 116.95C73.501 116.95 72.1344 117.333 70.9344 118.1C69.7677 118.867 68.8344 119.917 68.1344 121.25C67.4677 122.583 67.1344 124.1 67.1344 125.8C67.1344 127.533 67.4677 129.083 68.1344 130.45C68.8344 131.783 69.7677 132.833 70.9344 133.6C72.1344 134.367 73.501 134.75 75.0344 134.75ZM99.925 130.8L99.675 125.2L112.225 112.75H119.175L99.925 130.8ZM95.225 139V102H100.375V139H95.225ZM112.925 139L103.025 127.45L106.675 124.1L119.525 139H112.925ZM134.77 139.5C132.07 139.5 129.67 138.933 127.57 137.8C125.503 136.633 123.87 135.05 122.67 133.05C121.503 131.05 120.92 128.75 120.92 126.15C120.92 124.083 121.253 122.2 121.92 120.5C122.587 118.8 123.503 117.333 124.67 116.1C125.87 114.833 127.287 113.867 128.92 113.2C130.587 112.5 132.387 112.15 134.32 112.15C136.02 112.15 137.603 112.483 139.07 113.15C140.537 113.783 141.803 114.667 142.87 115.8C143.97 116.933 144.803 118.283 145.37 119.85C145.97 121.383 146.253 123.067 146.22 124.9L146.17 127.1H124.72L123.57 123H141.72L140.97 123.85V122.65C140.87 121.55 140.503 120.567 139.87 119.7C139.237 118.833 138.437 118.15 137.47 117.65C136.503 117.15 135.453 116.9 134.32 116.9C132.52 116.9 131.003 117.25 129.77 117.95C128.537 118.617 127.603 119.617 126.97 120.95C126.337 122.25 126.02 123.867 126.02 125.8C126.02 127.633 126.403 129.233 127.17 130.6C127.937 131.933 129.02 132.967 130.42 133.7C131.82 134.433 133.437 134.8 135.27 134.8C136.57 134.8 137.77 134.583 138.87 134.15C140.003 133.717 141.22 132.933 142.52 131.8L145.12 135.45C144.32 136.25 143.337 136.95 142.17 137.55C141.037 138.15 139.82 138.633 138.52 139C137.253 139.333 136.003 139.5 134.77 139.5ZM160.567 139.5C158.367 139.5 156.383 139.117 154.617 138.35C152.85 137.583 151.383 136.45 150.217 134.95L153.717 131.95C154.717 133.117 155.8 133.967 156.967 134.5C158.167 135 159.517 135.25 161.017 135.25C161.617 135.25 162.167 135.183 162.667 135.05C163.2 134.883 163.65 134.65 164.017 134.35C164.417 134.05 164.717 133.7 164.917 133.3C165.117 132.867 165.217 132.4 165.217 131.9C165.217 131.033 164.9 130.333 164.267 129.8C163.933 129.567 163.4 129.317 162.667 129.05C161.967 128.75 161.05 128.45 159.917 128.15C157.983 127.65 156.4 127.083 155.167 126.45C153.933 125.817 152.983 125.1 152.317 124.3C151.817 123.667 151.45 122.983 151.217 122.25C150.983 121.483 150.867 120.65 150.867 119.75C150.867 118.65 151.1 117.65 151.567 116.75C152.067 115.817 152.733 115.017 153.567 114.35C154.433 113.65 155.433 113.117 156.567 112.75C157.733 112.383 158.967 112.2 160.267 112.2C161.5 112.2 162.717 112.367 163.917 112.7C165.15 113.033 166.283 113.517 167.317 114.15C168.35 114.783 169.217 115.533 169.917 116.4L166.967 119.65C166.333 119.017 165.633 118.467 164.867 118C164.133 117.5 163.383 117.117 162.617 116.85C161.85 116.583 161.15 116.45 160.517 116.45C159.817 116.45 159.183 116.517 158.617 116.65C158.05 116.783 157.567 116.983 157.167 117.25C156.8 117.517 156.517 117.85 156.317 118.25C156.117 118.65 156.017 119.1 156.017 119.6C156.05 120.033 156.15 120.45 156.317 120.85C156.517 121.217 156.783 121.533 157.117 121.8C157.483 122.067 158.033 122.35 158.767 122.65C159.5 122.95 160.433 123.233 161.567 123.5C163.233 123.933 164.6 124.417 165.667 124.95C166.767 125.45 167.633 126.033 168.267 126.7C168.933 127.333 169.4 128.067 169.667 128.9C169.933 129.733 170.067 130.667 170.067 131.7C170.067 133.2 169.633 134.55 168.767 135.75C167.933 136.917 166.8 137.833 165.367 138.5C163.933 139.167 162.333 139.5 160.567 139.5ZM203.556 139.5C202.423 139.5 201.29 139.317 200.156 138.95C199.056 138.583 198.04 138.1 197.106 137.5C196.206 136.867 195.44 136.183 194.806 135.45C194.206 134.683 193.806 133.917 193.606 133.15L194.906 132.45V138.85H189.756V102H194.906V118.75L194.106 118.3C194.273 117.533 194.64 116.8 195.206 116.1C195.773 115.367 196.49 114.717 197.356 114.15C198.256 113.55 199.223 113.083 200.256 112.75C201.29 112.383 202.34 112.2 203.406 112.2C205.773 112.2 207.873 112.783 209.706 113.95C211.54 115.117 212.99 116.733 214.056 118.8C215.123 120.833 215.656 123.167 215.656 125.8C215.656 128.433 215.123 130.783 214.056 132.85C213.023 134.917 211.59 136.55 209.756 137.75C207.923 138.917 205.856 139.5 203.556 139.5ZM202.706 134.8C204.24 134.8 205.606 134.417 206.806 133.65C208.006 132.85 208.956 131.783 209.656 130.45C210.356 129.083 210.706 127.533 210.706 125.8C210.706 124.1 210.356 122.583 209.656 121.25C208.99 119.883 208.056 118.817 206.856 118.05C205.656 117.283 204.273 116.9 202.706 116.9C201.14 116.9 199.756 117.283 198.556 118.05C197.356 118.817 196.406 119.883 195.706 121.25C195.006 122.583 194.656 124.1 194.656 125.8C194.656 127.533 195.006 129.083 195.706 130.45C196.406 131.783 197.356 132.85 198.556 133.65C199.756 134.417 201.14 134.8 202.706 134.8ZM224.674 150.5L229.974 138.25L230.024 142.35L216.924 112.75H222.924L231.124 132.05C231.29 132.383 231.49 132.9 231.724 133.6C231.957 134.267 232.157 134.933 232.324 135.6L231.024 135.9C231.29 135.2 231.54 134.5 231.774 133.8C232.04 133.1 232.29 132.4 232.524 131.7L239.374 112.75H245.474L234.674 139L230.224 150.5H224.674Z" fill="white"/>
<path d="M270.34 128.75L268.14 121.6L285.49 104H295.54L270.34 128.75ZM264.14 139V104H272.64V139H264.14ZM286.59 139L273.59 121.9L279.34 116.95L296.49 139H286.59ZM307.807 139.45C305.574 139.45 303.574 138.867 301.807 137.7C300.074 136.5 298.69 134.867 297.657 132.8C296.624 130.7 296.107 128.333 296.107 125.7C296.107 123 296.624 120.617 297.657 118.55C298.69 116.483 300.107 114.867 301.907 113.7C303.707 112.5 305.757 111.9 308.057 111.9C309.324 111.9 310.474 112.083 311.507 112.45C312.574 112.817 313.507 113.333 314.307 114C315.107 114.633 315.79 115.383 316.357 116.25C316.924 117.083 317.34 117.983 317.607 118.95L315.957 118.75V112.45H323.907V139H315.807V132.6L317.607 132.55C317.34 133.483 316.907 134.367 316.307 135.2C315.707 136.033 314.974 136.767 314.107 137.4C313.24 138.033 312.274 138.533 311.207 138.9C310.14 139.267 309.007 139.45 307.807 139.45ZM310.007 132.7C311.24 132.7 312.307 132.417 313.207 131.85C314.107 131.283 314.807 130.483 315.307 129.45C315.807 128.383 316.057 127.133 316.057 125.7C316.057 124.267 315.807 123.033 315.307 122C314.807 120.933 314.107 120.117 313.207 119.55C312.307 118.95 311.24 118.65 310.007 118.65C308.807 118.65 307.757 118.95 306.857 119.55C305.99 120.117 305.307 120.933 304.807 122C304.307 123.033 304.057 124.267 304.057 125.7C304.057 127.133 304.307 128.383 304.807 129.45C305.307 130.483 305.99 131.283 306.857 131.85C307.757 132.417 308.807 132.7 310.007 132.7ZM333.166 139V105.75H341.166V139H333.166ZM328.466 119.45V112.45H346.316V119.45H328.466ZM351.338 139V112.45H359.338V139H351.338ZM355.338 107.2C353.838 107.2 352.655 106.85 351.788 106.15C350.955 105.417 350.538 104.383 350.538 103.05C350.538 101.85 350.971 100.867 351.838 100.1C352.705 99.3333 353.871 98.95 355.338 98.95C356.838 98.95 358.005 99.3167 358.838 100.05C359.671 100.75 360.088 101.75 360.088 103.05C360.088 104.283 359.655 105.283 358.788 106.05C357.955 106.817 356.805 107.2 355.338 107.2ZM379.505 139.5C376.571 139.5 374.021 138.917 371.855 137.75C369.688 136.55 368.005 134.933 366.805 132.9C365.605 130.833 365.005 128.483 365.005 125.85C365.005 123.817 365.338 121.95 366.005 120.25C366.671 118.55 367.605 117.083 368.805 115.85C370.005 114.583 371.421 113.617 373.055 112.95C374.721 112.25 376.538 111.9 378.505 111.9C380.371 111.9 382.071 112.233 383.605 112.9C385.171 113.567 386.521 114.5 387.655 115.7C388.788 116.9 389.655 118.317 390.255 119.95C390.855 121.583 391.121 123.367 391.055 125.3L391.005 127.45H369.855L368.705 122.95H384.505L383.655 123.9V122.9C383.588 122.067 383.321 121.333 382.855 120.7C382.421 120.033 381.838 119.517 381.105 119.15C380.371 118.783 379.538 118.6 378.605 118.6C377.305 118.6 376.188 118.867 375.255 119.4C374.355 119.9 373.671 120.65 373.205 121.65C372.738 122.617 372.505 123.817 372.505 125.25C372.505 126.717 372.805 128 373.405 129.1C374.038 130.167 374.938 131 376.105 131.6C377.305 132.2 378.721 132.5 380.355 132.5C381.488 132.5 382.488 132.333 383.355 132C384.255 131.667 385.221 131.1 386.255 130.3L390.005 135.6C388.971 136.5 387.871 137.233 386.705 137.8C385.538 138.367 384.338 138.783 383.105 139.05C381.905 139.35 380.705 139.5 379.505 139.5Z" fill="#E4B5EC"/>
<path d="M30.9 139H24.9C24.9 142.314 27.5863 145 30.9 145V139ZM30.9 104V98C27.5863 98 24.9 100.686 24.9 104H30.9ZM51.15 105L48.7576 110.502L48.7576 110.502L51.15 105ZM54.6 108L49.3986 110.991C49.4283 111.043 49.4588 111.094 49.4901 111.145L54.6 108ZM54.2 117.65L49.5148 113.902C49.4955 113.926 49.4764 113.95 49.4575 113.975L54.2 117.65ZM49.85 120.4H43.85C43.85 122.265 44.7175 124.024 46.1972 125.16C47.677 126.296 49.6007 126.678 51.4024 126.196L49.85 120.4ZM49.85 119.4L51.0986 113.531C49.3279 113.155 47.4816 113.598 46.0745 114.737C44.6675 115.876 43.85 117.59 43.85 119.4H49.85ZM53.95 121.2L50.3721 126.016C50.402 126.039 50.4322 126.061 50.4626 126.082L53.95 121.2ZM56.65 124.35L51.2834 127.033C51.3021 127.071 51.3211 127.108 51.3405 127.144L56.65 124.35ZM56.85 133.15L51.299 130.873C51.2889 130.897 51.2789 130.922 51.2691 130.947L56.85 133.15ZM54.55 136.35L50.6943 131.753C50.6695 131.774 50.6449 131.795 50.6204 131.816L54.55 136.35ZM50.9 138.35L52.6363 144.093C52.6769 144.081 52.7173 144.068 52.7575 144.055L50.9 138.35ZM36.3 133.8H30.3C30.3 137.114 32.9863 139.8 36.3 139.8V133.8ZM49.15 133.2L46.8559 127.656C46.8327 127.665 46.8096 127.675 46.7865 127.685L49.15 133.2ZM51.35 131.45L46.3577 128.122C46.3465 128.139 46.3354 128.155 46.3243 128.172L51.35 131.45ZM51.3 125.95L46.4476 129.479C46.4818 129.526 46.5167 129.573 46.5523 129.619L51.3 125.95ZM49 124.3L46.7717 129.871C46.8256 129.892 46.8799 129.913 46.9345 129.933L49 124.3ZM36.3 123.7V117.7C32.9863 117.7 30.3 120.386 30.3 123.7H36.3ZM36.3 118.5H30.3C30.3 121.814 32.9863 124.5 36.3 124.5V118.5ZM47.85 117.9L45.1667 112.533C45.1359 112.549 45.1052 112.565 45.0746 112.58L47.85 117.9ZM49.7 116.25L44.7077 112.922C44.6703 112.978 44.6339 113.035 44.5984 113.092L49.7 116.25ZM36.3 109.2V103.2C32.9863 103.2 30.3 105.886 30.3 109.2H36.3ZM30.9 139H36.9V104H30.9H24.9V139H30.9ZM30.9 104V110H45.5V104V98H30.9V104ZM45.5 104V110C47.1719 110 48.187 110.254 48.7576 110.502L51.15 105L53.5424 99.4976C51.0463 98.4123 48.2948 98 45.5 98V104ZM51.15 105L48.7576 110.502C49.2181 110.703 49.331 110.873 49.3986 110.991L54.6 108L59.8014 105.009C58.3357 102.46 56.1486 100.631 53.5424 99.4976L51.15 105ZM54.6 108L49.4901 111.145C49.581 111.292 49.8 111.74 49.8 112.8H55.8H61.8C61.8 110.06 61.219 107.308 59.71 104.855L54.6 108ZM55.8 112.8H49.8C49.8 113.5 49.6339 113.753 49.5148 113.902L54.2 117.65L58.8852 121.398C60.8995 118.88 61.8 115.9 61.8 112.8H55.8ZM54.2 117.65L49.4575 113.975C49.3415 114.124 49.0904 114.392 48.2976 114.604L49.85 120.4L51.4024 126.196C54.3429 125.408 56.9919 123.842 58.9425 121.325L54.2 117.65ZM49.85 120.4H55.85V119.4H49.85H43.85V120.4H49.85ZM49.85 119.4L48.6014 125.269C49.4119 125.441 49.9651 125.714 50.3721 126.016L53.95 121.2L57.5279 116.384C55.6015 114.952 53.4215 114.026 51.0986 113.531L49.85 119.4ZM53.95 121.2L50.4626 126.082C50.8432 126.354 51.0934 126.653 51.2834 127.033L56.65 124.35L62.0166 121.667C60.94 119.513 59.3902 117.712 57.4374 116.318L53.95 121.2ZM56.65 124.35L51.3405 127.144C51.4932 127.435 51.65 127.902 51.65 128.7H57.65H63.65C63.65 126.232 63.1401 123.799 61.9595 121.556L56.65 124.35ZM57.65 128.7H51.65C51.65 129.728 51.4861 130.417 51.299 130.873L56.85 133.15L62.401 135.427C63.2805 133.283 63.65 131.005 63.65 128.7H57.65ZM56.85 133.15L51.2691 130.947C51.1321 131.294 50.9545 131.535 50.6943 131.753L54.55 136.35L58.4057 140.947C60.2122 139.432 61.5679 137.539 62.4309 135.353L56.85 133.15ZM54.55 136.35L50.6204 131.816C50.3045 132.09 49.8193 132.392 49.0425 132.645L50.9 138.35L52.7575 144.055C54.8474 143.375 56.7955 142.344 58.4796 140.884L54.55 136.35ZM50.9 138.35L49.1637 132.607C48.403 132.837 47.3718 133 46 133V139V145C48.2949 145 50.5303 144.73 52.6363 144.093L50.9 138.35ZM46 139V133H30.9V139V145H46V139ZM36.3 133.8V139.8H45.7V133.8V127.8H36.3V133.8ZM45.7 133.8V139.8C47.614 139.8 49.623 139.525 51.5135 138.715L49.15 133.2L46.7865 127.685C46.8104 127.675 46.5194 127.8 45.7 127.8V133.8ZM49.15 133.2L51.4441 138.744C53.3639 137.95 55.1232 136.648 56.3757 134.728L51.35 131.45L46.3243 128.172C46.4341 128.004 46.5652 127.866 46.6899 127.767C46.8092 127.672 46.881 127.646 46.8559 127.656L49.15 133.2ZM51.35 131.45L56.3423 134.778C57.6238 132.856 58.15 130.709 58.15 128.6H52.15H46.15C46.15 128.664 46.1426 128.625 46.1733 128.516C46.2057 128.401 46.2657 128.26 46.3577 128.122L51.35 131.45ZM52.15 128.6H58.15C58.15 126.4 57.5195 124.186 56.0477 122.281L51.3 125.95L46.5523 129.619C46.4092 129.433 46.2951 129.216 46.2242 128.995C46.1556 128.781 46.15 128.635 46.15 128.6H52.15ZM51.3 125.95L56.1524 122.421C54.804 120.567 52.9832 119.37 51.0655 118.667L49 124.3L46.9345 129.933C46.9895 129.953 46.9375 129.942 46.8276 129.863C46.7116 129.78 46.5729 129.651 46.4476 129.479L51.3 125.95ZM49 124.3L51.2283 118.729C49.3572 117.981 47.3831 117.7 45.45 117.7V123.7V129.7C46.2503 129.7 46.6428 129.819 46.7717 129.871L49 124.3ZM45.45 123.7V117.7H36.3V123.7V129.7H45.45V123.7ZM36.3 123.7H30.3V133.8H36.3H42.3V123.7H36.3ZM36.3 118.5V124.5H45.2V118.5V112.5H36.3V118.5ZM45.2 118.5V124.5C47.0147 124.5 48.8768 124.132 50.6254 123.22L47.85 117.9L45.0746 112.58C45.171 112.53 45.2487 112.507 45.2875 112.498C45.323 112.49 45.2999 112.5 45.2 112.5V118.5ZM47.85 117.9L50.5333 123.267C52.2394 122.414 53.7322 121.136 54.8016 119.408L49.7 116.25L44.5984 113.092C44.6868 112.949 44.7979 112.818 44.9188 112.71C45.0372 112.604 45.1314 112.551 45.1667 112.533L47.85 117.9ZM49.7 116.25L54.6923 119.578C55.8626 117.823 56.4 115.848 56.4 113.85H50.4H44.4C44.4 113.777 44.4103 113.633 44.465 113.445C44.5207 113.254 44.6062 113.074 44.7077 112.922L49.7 116.25ZM50.4 113.85H56.4C56.4 110.877 55.3237 107.855 52.6482 105.715L48.9 110.4L45.1518 115.085C44.906 114.889 44.6705 114.595 44.5226 114.255C44.3866 113.942 44.4 113.765 44.4 113.85H50.4ZM48.9 110.4L52.6482 105.715C50.1929 103.751 47.2251 103.2 44.6 103.2V109.2V115.2C45.12 115.2 45.384 115.257 45.4622 115.279C45.5254 115.297 45.3765 115.265 45.1518 115.085L48.9 110.4ZM44.6 109.2V103.2H36.3V109.2V115.2H44.6V109.2ZM36.3 109.2H30.3V118.5H36.3H42.3V109.2H36.3ZM67.7344 137.7L64.3631 142.663C64.3774 142.673 64.3918 142.683 64.4062 142.692L67.7344 137.7ZM63.4844 132.8L58.1527 135.552L58.1527 135.552L63.4844 132.8ZM63.4844 118.8L58.1879 115.981C58.1823 115.991 58.1767 116.002 58.1711 116.013L63.4844 118.8ZM67.8844 113.95L64.7044 108.862C64.6906 108.871 64.6768 108.879 64.6631 108.888L67.8844 113.95ZM77.8844 112.8L79.8813 107.142L79.8813 107.142L77.8844 112.8ZM80.8344 114.5L76.8706 119.004C76.934 119.06 76.9986 119.115 77.0644 119.168L80.8344 114.5ZM82.9344 116.95L77.7249 119.927C77.7512 119.973 77.7781 120.019 77.8057 120.064L82.9344 116.95ZM83.9844 119.95L82.0132 125.617C83.9727 126.299 86.1452 125.919 87.7581 124.615C89.371 123.31 90.1954 121.264 89.938 119.206L83.9844 119.95ZM82.8344 119.55H76.8344C76.8344 122.104 78.4511 124.378 80.8632 125.217L82.8344 119.55ZM82.8344 112.75V106.75C79.5207 106.75 76.8344 109.436 76.8344 112.75H82.8344ZM88.0344 112.75H94.0344C94.0344 109.436 91.3481 106.75 88.0344 106.75V112.75ZM88.0344 139V145C91.3481 145 94.0344 142.314 94.0344 139H88.0344ZM82.8344 139H76.8344C76.8344 142.314 79.5207 145 82.8344 145V139ZM82.8344 132.75L81.1544 126.99C78.5944 127.737 76.8344 130.083 76.8344 132.75H82.8344ZM84.0344 132.4L89.8915 133.702C90.3516 131.631 89.6844 129.472 88.1366 128.021C86.5889 126.571 84.3905 126.046 82.3544 126.64L84.0344 132.4ZM82.7844 135.05L77.94 131.51C77.9317 131.521 77.9234 131.533 77.9152 131.544L82.7844 135.05ZM80.4344 137.3L77.028 132.361C77.0008 132.379 76.9738 132.398 76.9469 132.418L80.4344 137.3ZM77.2844 138.9L75.3384 133.224C75.3214 133.23 75.3044 133.236 75.2875 133.242L77.2844 138.9ZM79.1844 133.6L75.954 128.544L75.954 128.544L79.1844 133.6ZM81.9844 130.45L76.6441 127.715C76.6353 127.732 76.6265 127.749 76.6178 127.767L81.9844 130.45ZM81.9844 121.25L76.6178 123.933C76.6355 123.969 76.6536 124.004 76.672 124.039L81.9844 121.25ZM79.1844 118.1L75.954 123.156L75.954 123.156L79.1844 118.1ZM70.9344 118.1L67.704 113.044C67.6824 113.058 67.6608 113.072 67.6393 113.086L70.9344 118.1ZM68.1344 121.25L62.822 118.461C62.8036 118.496 62.7855 118.531 62.7678 118.567L68.1344 121.25ZM68.1344 130.45L62.7418 133.081C62.7677 133.134 62.7945 133.187 62.822 133.239L68.1344 130.45ZM70.9344 133.6L67.6393 138.614C67.6608 138.628 67.6824 138.642 67.704 138.656L70.9344 133.6ZM73.6844 139.5V133.5C72.7003 133.5 71.8753 133.25 71.0626 132.708L67.7344 137.7L64.4062 142.692C67.1934 144.55 70.3351 145.5 73.6844 145.5V139.5ZM67.7344 137.7L71.1057 132.737C70.239 132.148 69.4657 131.307 68.8161 130.048L63.4844 132.8L58.1527 135.552C59.6363 138.427 61.6965 140.852 64.3631 142.663L67.7344 137.7ZM63.4844 132.8L68.8161 130.048C68.2382 128.928 67.8844 127.557 67.8844 125.8H61.8844H55.8844C55.8844 129.243 56.5972 132.538 58.1527 135.552L63.4844 132.8ZM61.8844 125.8H67.8844C67.8844 123.994 68.2444 122.642 68.7977 121.587L63.4844 118.8L58.1711 116.013C56.5911 119.025 55.8844 122.339 55.8844 125.8H61.8844ZM63.4844 118.8L68.7809 121.619C69.4331 120.394 70.2132 119.58 71.1056 119.012L67.8844 113.95L64.6631 108.888C61.8889 110.653 59.7357 113.073 58.1879 115.981L63.4844 118.8ZM67.8844 113.95L71.0644 119.038C71.9335 118.495 72.906 118.2 74.1344 118.2V112.2V106.2C70.7628 106.2 67.5686 107.072 64.7044 108.862L67.8844 113.95ZM74.1344 112.2V118.2C74.9129 118.2 75.477 118.313 75.8875 118.458L77.8844 112.8L79.8813 107.142C78.0251 106.487 76.0892 106.2 74.1344 106.2V112.2ZM77.8844 112.8L75.8875 118.458C76.3577 118.624 76.6592 118.818 76.8706 119.004L80.8344 114.5L84.7981 109.996C83.3429 108.715 81.6777 107.776 79.8813 107.142L77.8844 112.8ZM80.8344 114.5L77.0644 119.168C77.3717 119.416 77.5755 119.665 77.7249 119.927L82.9344 116.95L88.1438 113.973C87.2266 112.368 86.0304 110.984 84.6044 109.832L80.8344 114.5ZM82.9344 116.95L77.8057 120.064C77.9405 120.286 78.004 120.48 78.0307 120.694L83.9844 119.95L89.938 119.206C89.6981 117.286 89.0616 115.481 88.0631 113.836L82.9344 116.95ZM83.9844 119.95L85.9555 114.283L84.8055 113.883L82.8344 119.55L80.8632 125.217L82.0132 125.617L83.9844 119.95ZM82.8344 119.55H88.8344V112.75H82.8344H76.8344V119.55H82.8344ZM82.8344 112.75V118.75H88.0344V112.75V106.75H82.8344V112.75ZM88.0344 112.75H82.0344V139H88.0344H94.0344V112.75H88.0344ZM88.0344 139V133H82.8344V139V145H88.0344V139ZM82.8344 139H88.8344V132.75H82.8344H76.8344V139H82.8344ZM82.8344 132.75L84.5144 138.51L85.7144 138.16L84.0344 132.4L82.3544 126.64L81.1544 126.99L82.8344 132.75ZM84.0344 132.4L78.1773 131.098C78.1839 131.069 78.1644 131.203 77.94 131.51L82.7844 135.05L87.6287 138.59C88.671 137.164 89.4849 135.531 89.8915 133.702L84.0344 132.4ZM82.7844 135.05L77.9152 131.544C77.7702 131.746 77.5086 132.029 77.028 132.361L80.4344 137.3L83.8408 142.239C85.2935 141.237 86.5986 140.021 87.6536 138.556L82.7844 135.05ZM80.4344 137.3L76.9469 132.418C76.5205 132.722 75.9968 132.999 75.3384 133.224L77.2844 138.9L79.2303 144.576C80.9053 144.001 82.4815 143.211 83.9218 142.182L80.4344 137.3ZM77.2844 138.9L75.2875 133.242C74.8295 133.404 74.3078 133.5 73.6844 133.5V139.5V145.5C75.5943 145.5 77.4726 145.196 79.2813 144.558L77.2844 138.9ZM75.0344 134.75V140.75C77.6269 140.75 80.1545 140.1 82.4147 138.656L79.1844 133.6L75.954 128.544C75.8143 128.633 75.5752 128.75 75.0344 128.75V134.75ZM79.1844 133.6L82.4147 138.656C84.5717 137.278 86.2233 135.389 87.3509 133.133L81.9844 130.45L76.6178 127.767C76.4121 128.178 76.197 128.389 75.954 128.544L79.1844 133.6ZM81.9844 130.45L87.3246 133.185C88.5113 130.868 89.0344 128.361 89.0344 125.8H83.0344H77.0344C77.0344 126.706 76.8574 127.298 76.6441 127.715L81.9844 130.45ZM83.0344 125.8H89.0344C89.0344 123.255 88.5038 120.76 87.2968 118.461L81.9844 121.25L76.672 124.039C76.8649 124.406 77.0344 124.945 77.0344 125.8H83.0344ZM81.9844 121.25L87.3509 118.567C86.2233 116.311 84.5717 114.422 82.4147 113.044L79.1844 118.1L75.954 123.156C76.197 123.311 76.4121 123.522 76.6178 123.933L81.9844 121.25ZM79.1844 118.1L82.4147 113.044C80.1545 111.6 77.6269 110.95 75.0344 110.95V116.95V122.95C75.5752 122.95 75.8143 123.067 75.954 123.156L79.1844 118.1ZM75.0344 116.95V110.95C72.448 110.95 69.9432 111.613 67.704 113.044L70.9344 118.1L74.1647 123.156C74.3256 123.053 74.5541 122.95 75.0344 122.95V116.95ZM70.9344 118.1L67.6393 113.086C65.5561 114.455 63.9566 116.3 62.822 118.461L68.1344 121.25L73.4468 124.039C73.7122 123.533 73.9793 123.279 74.2294 123.114L70.9344 118.1ZM68.1344 121.25L62.7678 118.567C61.6295 120.843 61.1344 123.3 61.1344 125.8H67.1344H73.1344C73.1344 124.9 73.3059 124.323 73.5009 123.933L68.1344 121.25ZM67.1344 125.8H61.1344C61.1344 128.317 61.6229 130.787 62.7418 133.081L68.1344 130.45L73.527 127.819C73.3125 127.38 73.1344 126.75 73.1344 125.8H67.1344ZM68.1344 130.45L62.822 133.239C63.9566 135.4 65.5561 137.245 67.6393 138.614L70.9344 133.6L74.2294 128.586C73.9793 128.421 73.7122 128.167 73.4468 127.661L68.1344 130.45ZM70.9344 133.6L67.704 138.656C69.9432 140.087 72.448 140.75 75.0344 140.75V134.75V128.75C74.5541 128.75 74.3256 128.647 74.1647 128.544L70.9344 133.6ZM99.925 130.8L93.931 131.068C94.0355 133.408 95.4931 135.474 97.6635 136.357C99.8338 137.241 102.32 136.78 104.029 135.177L99.925 130.8ZM99.675 125.2L95.4494 120.94C94.2477 122.132 93.6055 123.777 93.681 125.468L99.675 125.2ZM112.225 112.75V106.75C110.642 106.75 109.123 107.376 107.999 108.49L112.225 112.75ZM119.175 112.75L123.279 117.127C125.075 115.443 125.66 112.833 124.754 110.543C123.849 108.254 121.637 106.75 119.175 106.75V112.75ZM95.225 139H89.225C89.225 142.314 91.9113 145 95.225 145V139ZM95.225 102V96C91.9113 96 89.225 98.6863 89.225 102H95.225ZM100.375 102H106.375C106.375 98.6863 103.689 96 100.375 96V102ZM100.375 139V145C103.689 145 106.375 142.314 106.375 139H100.375ZM112.925 139L108.369 142.905C109.509 144.235 111.173 145 112.925 145V139ZM103.025 127.45L98.9679 123.03C96.585 125.217 96.3645 128.899 98.4695 131.355L103.025 127.45ZM106.675 124.1L111.219 120.181C110.158 118.952 108.645 118.205 107.025 118.11C105.404 118.016 103.814 118.582 102.618 119.68L106.675 124.1ZM119.525 139V145C121.871 145 124.003 143.632 124.98 141.499C125.957 139.366 125.601 136.858 124.069 135.081L119.525 139ZM99.925 130.8L105.919 130.532L105.669 124.932L99.675 125.2L93.681 125.468L93.931 131.068L99.925 130.8ZM99.675 125.2L103.901 129.46L116.451 117.01L112.225 112.75L107.999 108.49L95.4494 120.94L99.675 125.2ZM112.225 112.75V118.75H119.175V112.75V106.75H112.225V112.75ZM119.175 112.75L115.071 108.373L95.821 126.423L99.925 130.8L104.029 135.177L123.279 117.127L119.175 112.75ZM95.225 139H101.225V102H95.225H89.225V139H95.225ZM95.225 102V108H100.375V102V96H95.225V102ZM100.375 102H94.375V139H100.375H106.375V102H100.375ZM100.375 139V133H95.225V139V145H100.375V139ZM112.925 139L117.481 135.095L107.581 123.545L103.025 127.45L98.4695 131.355L108.369 142.905L112.925 139ZM103.025 127.45L107.082 131.87L110.732 128.52L106.675 124.1L102.618 119.68L98.9679 123.03L103.025 127.45ZM106.675 124.1L102.131 128.019L114.981 142.919L119.525 139L124.069 135.081L111.219 120.181L106.675 124.1ZM119.525 139V133H112.925V139V145H119.525V139ZM127.57 137.8L124.62 143.025C124.654 143.044 124.687 143.062 124.72 143.08L127.57 137.8ZM122.67 133.05L117.487 136.073C117.5 136.095 117.512 136.116 117.525 136.137L122.67 133.05ZM121.92 120.5L127.506 122.691L127.506 122.691L121.92 120.5ZM124.67 116.1L120.314 111.974L120.311 111.977L124.67 116.1ZM128.92 113.2L131.187 118.755C131.206 118.747 131.225 118.74 131.243 118.732L128.92 113.2ZM139.07 113.15L136.587 118.612C136.622 118.628 136.656 118.643 136.691 118.658L139.07 113.15ZM142.87 115.8L138.501 119.912C138.522 119.935 138.543 119.957 138.564 119.979L142.87 115.8ZM145.37 119.85L139.728 121.891C139.745 121.94 139.764 121.988 139.782 122.036L145.37 119.85ZM146.22 124.9L152.218 125.036C152.219 125.027 152.219 125.018 152.219 125.009L146.22 124.9ZM146.17 127.1V133.1C149.431 133.1 152.094 130.496 152.168 127.236L146.17 127.1ZM124.72 127.1L118.943 128.72C119.669 131.31 122.03 133.1 124.72 133.1V127.1ZM123.57 123V117C121.692 117 119.923 117.879 118.789 119.375C117.654 120.872 117.286 122.813 117.793 124.62L123.57 123ZM141.72 123L146.219 126.97C147.78 125.201 148.159 122.682 147.189 120.532C146.219 118.382 144.079 117 141.72 117V123ZM140.97 123.85H134.97C134.97 126.345 136.514 128.58 138.848 129.462C141.182 130.345 143.818 129.691 145.469 127.82L140.97 123.85ZM140.97 122.65H146.97C146.97 122.469 146.962 122.287 146.945 122.107L140.97 122.65ZM139.87 119.7L144.714 116.16L144.714 116.16L139.87 119.7ZM137.47 117.65L134.713 122.979L134.713 122.979L137.47 117.65ZM129.77 117.95L132.623 123.228C132.659 123.209 132.696 123.189 132.732 123.168L129.77 117.95ZM126.97 120.95L132.364 123.578C132.373 123.56 132.381 123.542 132.39 123.524L126.97 120.95ZM127.17 130.6L121.937 133.536C121.947 133.554 121.958 133.572 121.968 133.591L127.17 130.6ZM130.42 133.7L127.636 139.015L127.636 139.015L130.42 133.7ZM138.87 134.15L136.727 128.546C136.708 128.553 136.69 128.56 136.671 128.568L138.87 134.15ZM142.52 131.8L147.407 128.319C146.424 126.94 144.905 126.04 143.223 125.841C141.541 125.643 139.854 126.165 138.577 127.277L142.52 131.8ZM145.12 135.45L149.363 139.693C151.434 137.621 151.707 134.355 150.007 131.969L145.12 135.45ZM142.17 137.55L139.426 132.214C139.405 132.225 139.384 132.236 139.363 132.247L142.17 137.55ZM138.52 139L140.047 144.802C140.081 144.793 140.115 144.784 140.149 144.775L138.52 139ZM134.77 139.5V133.5C132.932 133.5 131.534 133.122 130.42 132.52L127.57 137.8L124.72 143.08C127.805 144.745 131.208 145.5 134.77 145.5V139.5ZM127.57 137.8L130.519 132.575C129.341 131.91 128.471 131.056 127.815 129.963L122.67 133.05L117.525 136.137C119.269 139.044 121.666 141.357 124.62 143.025L127.57 137.8ZM122.67 133.05L127.853 130.027C127.285 129.053 126.92 127.821 126.92 126.15H120.92H114.92C114.92 129.679 115.722 133.047 117.487 136.073L122.67 133.05ZM120.92 126.15H126.92C126.92 124.735 127.146 123.607 127.506 122.691L121.92 120.5L116.334 118.309C115.36 120.793 114.92 123.432 114.92 126.15H120.92ZM121.92 120.5L127.506 122.691C127.913 121.653 128.43 120.856 129.029 120.223L124.67 116.1L120.311 111.977C118.576 113.811 117.26 115.947 116.334 118.309L121.92 120.5ZM124.67 116.1L129.026 120.226C129.632 119.586 130.335 119.103 131.187 118.755L128.92 113.2L126.653 107.645C124.238 108.63 122.108 110.081 120.314 111.974L124.67 116.1ZM128.92 113.2L131.243 118.732C132.124 118.362 133.128 118.15 134.32 118.15V112.15V106.15C131.645 106.15 129.049 106.638 126.597 107.668L128.92 113.2ZM134.32 112.15V118.15C135.212 118.15 135.943 118.319 136.587 118.612L139.07 113.15L141.553 107.688C139.264 106.647 136.828 106.15 134.32 106.15V112.15ZM139.07 113.15L136.691 118.658C137.427 118.976 138.01 119.391 138.501 119.912L142.87 115.8L147.239 111.688C145.596 109.942 143.647 108.591 141.449 107.642L139.07 113.15ZM142.87 115.8L138.564 119.979C139.04 120.469 139.434 121.079 139.728 121.891L145.37 119.85L151.012 117.809C150.173 115.488 148.9 113.398 147.175 111.621L142.87 115.8ZM145.37 119.85L139.782 122.036C140.066 122.76 140.242 123.653 140.221 124.791L146.22 124.9L152.219 125.009C152.265 122.48 151.874 120.007 150.957 117.664L145.37 119.85ZM146.22 124.9L140.221 124.764L140.171 126.964L146.17 127.1L152.168 127.236L152.218 125.036L146.22 124.9ZM146.17 127.1V121.1H124.72V127.1V133.1H146.17V127.1ZM124.72 127.1L130.497 125.48L129.347 121.38L123.57 123L117.793 124.62L118.943 128.72L124.72 127.1ZM123.57 123V129H141.72V123V117H123.57V123ZM141.72 123L137.221 119.03L136.471 119.88L140.97 123.85L145.469 127.82L146.219 126.97L141.72 123ZM140.97 123.85H146.97V122.65H140.97H134.97V123.85H140.97ZM140.97 122.65L146.945 122.107C146.75 119.957 146.008 117.931 144.714 116.16L139.87 119.7L135.026 123.24C135.027 123.242 135.023 123.237 135.017 123.225C135.01 123.213 135.003 123.198 134.998 123.184C134.993 123.169 134.99 123.16 134.99 123.158C134.99 123.157 134.992 123.168 134.995 123.193L140.97 122.65ZM139.87 119.7L144.714 116.16C143.525 114.533 142.006 113.241 140.226 112.321L137.47 117.65L134.713 122.979C134.867 123.059 134.948 123.134 135.026 123.24L139.87 119.7ZM137.47 117.65L140.226 112.321C138.372 111.362 136.372 110.9 134.32 110.9V116.9V122.9C134.535 122.9 134.634 122.938 134.713 122.979L137.47 117.65ZM134.32 116.9V110.9C131.756 110.9 129.157 111.399 126.808 112.732L129.77 117.95L132.732 123.168C132.85 123.101 133.284 122.9 134.32 122.9V116.9ZM129.77 117.95L126.917 112.672C124.501 113.978 122.7 115.956 121.55 118.376L126.97 120.95L132.39 123.524C132.463 123.37 132.517 123.309 132.531 123.294C132.543 123.281 132.564 123.26 132.623 123.228L129.77 117.95ZM126.97 120.95L121.576 118.322C120.433 120.668 120.02 123.249 120.02 125.8H126.02H132.02C132.02 124.485 132.24 123.832 132.364 123.578L126.97 120.95ZM126.02 125.8H120.02C120.02 128.486 120.588 131.13 121.937 133.536L127.17 130.6L132.403 127.664C132.219 127.336 132.02 126.781 132.02 125.8H126.02ZM127.17 130.6L121.968 133.591C123.32 135.941 125.255 137.768 127.636 139.015L130.42 133.7L133.204 128.385C132.785 128.165 132.553 127.925 132.371 127.609L127.17 130.6ZM130.42 133.7L127.636 139.015C130.023 140.265 132.623 140.8 135.27 140.8V134.8V128.8C134.251 128.8 133.617 128.601 133.204 128.385L130.42 133.7ZM135.27 134.8V140.8C137.248 140.8 139.202 140.468 141.069 139.732L138.87 134.15L136.671 128.568C136.338 128.699 135.892 128.8 135.27 128.8V134.8ZM138.87 134.15L141.013 139.754C143.019 138.987 144.837 137.74 146.463 136.323L142.52 131.8L138.577 127.277C137.603 128.127 136.987 128.446 136.727 128.546L138.87 134.15ZM142.52 131.8L137.633 135.281L140.233 138.931L145.12 135.45L150.007 131.969L147.407 128.319L142.52 131.8ZM145.12 135.45L140.877 131.207C140.581 131.504 140.126 131.854 139.426 132.214L142.17 137.55L144.914 142.886C146.548 142.046 148.059 140.996 149.363 139.693L145.12 135.45ZM142.17 137.55L139.363 132.247C138.624 132.638 137.804 132.968 136.891 133.225L138.52 139L140.149 144.775C141.835 144.299 143.449 143.662 144.977 142.853L142.17 137.55ZM138.52 139L136.993 133.198C136.194 133.408 135.457 133.5 134.77 133.5V139.5V145.5C136.55 145.5 138.313 145.259 140.047 144.802L138.52 139ZM154.617 138.35L152.228 143.854L154.617 138.35ZM150.217 134.95L146.312 130.394C143.88 132.479 143.514 136.106 145.481 138.634L150.217 134.95ZM153.717 131.95L158.272 128.045C157.237 126.837 155.764 126.09 154.177 125.968C152.59 125.846 151.02 126.359 149.812 127.394L153.717 131.95ZM156.967 134.5L154.472 139.957C154.534 139.985 154.596 140.012 154.659 140.038L156.967 134.5ZM162.667 135.05L164.213 140.847C164.294 140.826 164.376 140.802 164.456 140.777L162.667 135.05ZM164.017 134.35L160.417 129.55C160.349 129.601 160.283 129.653 160.217 129.706L164.017 134.35ZM164.917 133.3L170.283 135.983C170.311 135.927 170.338 135.871 170.365 135.814L164.917 133.3ZM164.267 129.8L168.132 125.211C167.995 125.096 167.854 124.987 167.708 124.885L164.267 129.8ZM162.667 129.05L160.303 134.565C160.406 134.609 160.511 134.65 160.616 134.689L162.667 129.05ZM159.917 128.15L161.452 122.35C161.441 122.347 161.43 122.344 161.419 122.341L159.917 128.15ZM155.167 126.45L157.908 121.113L157.908 121.113L155.167 126.45ZM152.317 124.3L147.607 128.018C147.64 128.059 147.674 128.1 147.707 128.141L152.317 124.3ZM151.217 122.25L145.477 123.997C145.484 124.021 145.492 124.045 145.499 124.069L151.217 122.25ZM151.567 116.75L146.278 113.917C146.265 113.94 146.253 113.964 146.24 113.988L151.567 116.75ZM153.567 114.35L157.315 119.035C157.322 119.029 157.33 119.024 157.337 119.018L153.567 114.35ZM156.567 112.75L154.768 107.026C154.752 107.031 154.736 107.036 154.72 107.041L156.567 112.75ZM163.917 112.7L162.311 118.481C162.324 118.485 162.338 118.489 162.351 118.492L163.917 112.7ZM167.317 114.15L164.181 119.266L164.181 119.266L167.317 114.15ZM169.917 116.4L174.36 120.433C176.347 118.243 176.443 114.931 174.584 112.63L169.917 116.4ZM166.967 119.65L162.724 123.893C163.885 125.053 165.471 125.688 167.112 125.648C168.753 125.609 170.306 124.898 171.41 123.683L166.967 119.65ZM164.867 118L161.487 122.957C161.572 123.016 161.659 123.071 161.747 123.125L164.867 118ZM162.617 116.85L160.646 122.517L160.646 122.517L162.617 116.85ZM158.617 116.65L157.243 110.809L157.243 110.809L158.617 116.65ZM157.167 117.25L153.839 112.258C153.771 112.303 153.704 112.35 153.638 112.398L157.167 117.25ZM156.317 118.25L150.95 115.567L150.95 115.567L156.317 118.25ZM156.017 119.6H150.017C150.017 119.754 150.023 119.907 150.034 120.06L156.017 119.6ZM156.317 120.85L150.778 123.158C150.859 123.351 150.949 123.539 151.049 123.723L156.317 120.85ZM157.117 121.8L153.369 126.485C153.44 126.543 153.513 126.598 153.588 126.652L157.117 121.8ZM161.567 123.5L163.077 117.693C163.032 117.681 162.986 117.67 162.941 117.659L161.567 123.5ZM165.667 124.95L162.984 130.317C163.05 130.35 163.117 130.382 163.184 130.412L165.667 124.95ZM168.267 126.7L163.917 130.832C163.987 130.907 164.06 130.979 164.134 131.05L168.267 126.7ZM168.767 135.75L163.903 132.237C163.897 132.246 163.89 132.254 163.884 132.263L168.767 135.75ZM165.367 138.5L167.897 143.94L167.897 143.94L165.367 138.5ZM160.567 139.5V133.5C159.072 133.5 157.918 133.242 157.005 132.846L154.617 138.35L152.228 143.854C154.849 144.991 157.662 145.5 160.567 145.5V139.5ZM154.617 138.35L157.005 132.846C156.148 132.474 155.493 131.961 154.953 131.266L150.217 134.95L145.481 138.634C147.274 140.939 149.552 142.693 152.228 143.854L154.617 138.35ZM150.217 134.95L154.122 139.506L157.622 136.506L153.717 131.95L149.812 127.394L146.312 130.394L150.217 134.95ZM153.717 131.95L149.161 135.855C150.617 137.553 152.373 138.997 154.472 139.957L156.967 134.5L159.461 129.043C159.227 128.936 158.816 128.68 158.272 128.045L153.717 131.95ZM156.967 134.5L154.659 140.038C156.694 140.886 158.845 141.25 161.017 141.25V135.25V129.25C160.188 129.25 159.64 129.114 159.274 128.962L156.967 134.5ZM161.017 135.25V141.25C162.058 141.25 163.136 141.135 164.213 140.847L162.667 135.05L161.121 129.253C161.198 129.232 161.176 129.25 161.017 129.25V135.25ZM162.667 135.05L164.456 140.777C165.594 140.422 166.759 139.859 167.816 138.994L164.017 134.35L160.217 129.706C160.542 129.441 160.807 129.345 160.877 129.323L162.667 135.05ZM164.017 134.35L167.617 139.15C168.673 138.358 169.62 137.31 170.283 135.983L164.917 133.3L159.55 130.617C159.814 130.09 160.161 129.742 160.417 129.55L164.017 134.35ZM164.917 133.3L170.365 135.814C170.946 134.555 171.217 133.226 171.217 131.9H165.217H159.217C159.217 131.574 159.288 131.178 159.469 130.786L164.917 133.3ZM165.217 131.9H171.217C171.217 129.358 170.19 126.944 168.132 125.211L164.267 129.8L160.402 134.389C160.088 134.125 159.752 133.726 159.513 133.198C159.277 132.677 159.217 132.21 159.217 131.9H165.217ZM164.267 129.8L167.708 124.885C166.714 124.189 165.58 123.725 164.717 123.411L162.667 129.05L160.616 134.689C160.737 134.733 160.835 134.771 160.913 134.802C160.992 134.834 161.043 134.857 161.07 134.87C161.099 134.884 161.092 134.881 161.057 134.862C161.024 134.844 160.941 134.796 160.826 134.715L164.267 129.8ZM162.667 129.05L165.03 123.535C163.959 123.076 162.735 122.689 161.452 122.35L159.917 128.15L158.381 133.95C159.365 134.211 159.974 134.424 160.303 134.565L162.667 129.05ZM159.917 128.15L161.419 122.341C159.744 121.908 158.616 121.476 157.908 121.113L155.167 126.45L152.426 131.787C154.184 132.69 156.222 133.392 158.415 133.959L159.917 128.15ZM155.167 126.45L157.908 121.113C157.166 120.732 156.936 120.471 156.926 120.459L152.317 124.3L147.707 128.141C149.031 129.729 150.701 130.901 152.426 131.787L155.167 126.45ZM152.317 124.3L157.026 120.582C156.952 120.488 156.938 120.443 156.934 120.431L151.217 122.25L145.499 124.069C145.962 125.524 146.682 126.845 147.607 128.018L152.317 124.3ZM151.217 122.25L156.957 120.503C156.916 120.367 156.867 120.13 156.867 119.75H150.867H144.867C144.867 121.17 145.051 122.599 145.477 123.997L151.217 122.25ZM150.867 119.75H156.867C156.867 119.627 156.88 119.561 156.885 119.538C156.89 119.518 156.893 119.513 156.893 119.512L151.567 116.75L146.24 113.988C145.294 115.813 144.867 117.772 144.867 119.75H150.867ZM151.567 116.75L156.856 119.583C156.969 119.371 157.11 119.199 157.315 119.035L153.567 114.35L149.819 109.665C148.357 110.834 147.164 112.262 146.278 113.917L151.567 116.75ZM153.567 114.35L157.337 119.018C157.593 118.811 157.931 118.615 158.414 118.459L156.567 112.75L154.72 107.041C152.936 107.618 151.274 108.489 149.797 109.682L153.567 114.35ZM156.567 112.75L158.366 118.474C158.915 118.301 159.538 118.2 160.267 118.2V112.2V106.2C158.395 106.2 156.552 106.465 154.768 107.026L156.567 112.75ZM160.267 112.2V118.2C160.952 118.2 161.629 118.292 162.311 118.481L163.917 112.7L165.523 106.919C163.805 106.442 162.048 106.2 160.267 106.2V112.2ZM163.917 112.7L162.351 118.492C163.062 118.684 163.662 118.947 164.181 119.266L167.317 114.15L170.452 109.034C168.905 108.086 167.239 107.382 165.482 106.908L163.917 112.7ZM167.317 114.15L164.181 119.266C164.682 119.573 165.016 119.881 165.249 120.17L169.917 116.4L174.584 112.63C173.418 111.186 172.018 109.994 170.452 109.034L167.317 114.15ZM169.917 116.4L165.474 112.367L162.524 115.617L166.967 119.65L171.41 123.683L174.36 120.433L169.917 116.4ZM166.967 119.65L171.209 115.407C170.238 114.435 169.16 113.589 167.986 112.875L164.867 118L161.747 123.125C162.107 123.344 162.429 123.598 162.724 123.893L166.967 119.65ZM164.867 118L168.247 113.043C167.117 112.273 165.898 111.639 164.588 111.183L162.617 116.85L160.646 122.517C160.869 122.595 161.149 122.727 161.487 122.957L164.867 118ZM162.617 116.85L164.588 111.183C163.357 110.755 161.98 110.45 160.517 110.45V116.45V122.45C160.413 122.45 160.369 122.439 160.394 122.444C160.42 122.449 160.502 122.467 160.646 122.517L162.617 116.85ZM160.517 116.45V110.45C159.444 110.45 158.339 110.551 157.243 110.809L158.617 116.65L159.991 122.491C160.028 122.482 160.19 122.45 160.517 122.45V116.45ZM158.617 116.65L157.243 110.809C156.122 111.073 154.945 111.52 153.839 112.258L157.167 117.25L160.495 122.242C160.189 122.447 159.978 122.493 159.991 122.491L158.617 116.65ZM157.167 117.25L153.638 112.398C152.505 113.222 151.586 114.295 150.95 115.567L156.317 118.25L161.683 120.933C161.447 121.405 161.095 121.812 160.696 122.102L157.167 117.25ZM156.317 118.25L150.95 115.567C150.287 116.894 150.017 118.28 150.017 119.6H156.017H162.017C162.017 119.92 161.947 120.406 161.683 120.933L156.317 118.25ZM156.017 119.6L150.034 120.06C150.117 121.127 150.366 122.168 150.778 123.158L156.317 120.85L161.855 118.542C161.934 118.732 161.984 118.94 161.999 119.14L156.017 119.6ZM156.317 120.85L151.049 123.723C151.639 124.804 152.428 125.733 153.369 126.485L157.117 121.8L160.865 117.115C161.139 117.334 161.394 117.629 161.584 117.977L156.317 120.85ZM157.117 121.8L153.588 126.652C154.529 127.337 155.594 127.835 156.495 128.203L158.767 122.65L161.039 117.097C160.791 116.996 160.636 116.922 160.552 116.879C160.512 116.858 160.501 116.851 160.513 116.858C160.524 116.865 160.572 116.894 160.646 116.948L157.117 121.8ZM158.767 122.65L156.495 128.203C157.62 128.664 158.881 129.032 160.193 129.341L161.567 123.5L162.941 117.659C161.986 117.435 161.38 117.236 161.039 117.097L158.767 122.65ZM161.567 123.5L160.057 129.307C161.48 129.677 162.416 130.033 162.984 130.317L165.667 124.95L168.35 119.583C166.784 118.8 164.987 118.19 163.077 117.693L161.567 123.5ZM165.667 124.95L163.184 130.412C163.791 130.688 163.953 130.87 163.917 130.832L168.267 126.7L172.617 122.568C171.314 121.196 169.743 120.212 168.15 119.488L165.667 124.95ZM168.267 126.7L164.134 131.05C164.135 131.051 164.126 131.042 164.111 131.024C164.095 131.005 164.076 130.979 164.055 130.946C164.01 130.876 163.975 130.799 163.952 130.729L169.667 128.9L175.381 127.071C174.792 125.229 173.758 123.641 172.399 122.35L168.267 126.7ZM169.667 128.9L163.952 130.729C163.999 130.875 164.067 131.178 164.067 131.7H170.067H176.067C176.067 130.155 175.868 128.592 175.381 127.071L169.667 128.9ZM170.067 131.7H164.067C164.067 131.957 164.02 132.074 163.903 132.237L168.767 135.75L173.631 139.263C175.247 137.026 176.067 134.443 176.067 131.7H170.067ZM168.767 135.75L163.884 132.263C163.714 132.502 163.429 132.784 162.836 133.06L165.367 138.5L167.897 143.94C170.171 142.883 172.153 141.332 173.649 139.237L168.767 135.75ZM165.367 138.5L162.836 133.06C162.284 133.316 161.563 133.5 160.567 133.5V139.5V145.5C163.104 145.5 165.583 145.017 167.897 143.94L165.367 138.5ZM200.156 138.95L198.259 144.642C198.276 144.648 198.292 144.653 198.309 144.659L200.156 138.95ZM197.106 137.5L193.653 142.407C193.722 142.455 193.791 142.502 193.862 142.547L197.106 137.5ZM194.806 135.45L190.081 139.148C190.141 139.224 190.202 139.299 190.265 139.372L194.806 135.45ZM193.606 133.15L190.762 127.867C188.325 129.179 187.102 131.987 187.801 134.665L193.606 133.15ZM194.906 132.45H200.906C200.906 130.338 199.796 128.382 197.983 127.299C196.17 126.216 193.921 126.166 192.062 127.167L194.906 132.45ZM194.906 138.85V144.85C198.22 144.85 200.906 142.164 200.906 138.85H194.906ZM189.756 138.85H183.756C183.756 142.164 186.443 144.85 189.756 144.85V138.85ZM189.756 102V96C186.443 96 183.756 98.6863 183.756 102H189.756ZM194.906 102H200.906C200.906 98.6863 198.22 96 194.906 96V102ZM194.906 118.75L191.965 123.979C193.823 125.024 196.095 125.005 197.935 123.929C199.775 122.853 200.906 120.882 200.906 118.75H194.906ZM194.106 118.3L188.243 117.025C187.684 119.6 188.869 122.238 191.165 123.529L194.106 118.3ZM195.206 116.1L199.87 119.875C199.898 119.84 199.926 119.805 199.954 119.769L195.206 116.1ZM197.356 114.15L200.64 119.172C200.655 119.162 200.67 119.152 200.684 119.142L197.356 114.15ZM200.256 112.75L202.098 118.46C202.153 118.442 202.208 118.424 202.263 118.405L200.256 112.75ZM209.706 113.95L212.928 108.888L212.928 108.888L209.706 113.95ZM214.056 118.8L208.725 121.552C208.731 121.564 208.737 121.576 208.743 121.587L214.056 118.8ZM214.056 132.85L208.725 130.098C208.713 130.121 208.701 130.144 208.69 130.167L214.056 132.85ZM209.756 137.75L212.978 142.812C212.999 142.798 213.021 142.784 213.042 142.77L209.756 137.75ZM206.806 133.65L210.037 138.706C210.069 138.685 210.102 138.664 210.134 138.642L206.806 133.65ZM209.656 130.45L214.969 133.239C214.978 133.221 214.987 133.203 214.997 133.185L209.656 130.45ZM209.656 121.25L204.264 123.881C204.29 123.934 204.316 123.987 204.344 124.039L209.656 121.25ZM206.856 118.05L210.087 112.994L210.087 112.994L206.856 118.05ZM198.556 118.05L195.326 112.994L198.556 118.05ZM195.706 121.25L201.019 124.039C201.028 124.021 201.037 124.003 201.047 123.985L195.706 121.25ZM195.706 130.45L190.366 133.185C190.375 133.203 190.384 133.221 190.394 133.239L195.706 130.45ZM198.556 133.65L195.228 138.642C195.26 138.664 195.293 138.685 195.326 138.706L198.556 133.65ZM203.556 139.5V133.5C203.081 133.5 202.57 133.425 202.003 133.241L200.156 138.95L198.309 144.659C200.009 145.208 201.764 145.5 203.556 145.5V139.5ZM200.156 138.95L202.054 133.258C201.406 133.042 200.845 132.771 200.351 132.453L197.106 137.5L193.862 142.547C195.234 143.429 196.706 144.124 198.259 144.642L200.156 138.95ZM197.106 137.5L200.559 132.593C200.008 132.205 199.62 131.844 199.347 131.528L194.806 135.45L190.265 139.372C191.26 140.523 192.405 141.528 193.653 142.407L197.106 137.5ZM194.806 135.45L199.531 131.752C199.324 131.488 199.363 131.449 199.412 131.635L193.606 133.15L187.801 134.665C188.249 136.385 189.088 137.879 190.081 139.148L194.806 135.45ZM193.606 133.15L196.451 138.433L197.751 137.733L194.906 132.45L192.062 127.167L190.762 127.867L193.606 133.15ZM194.906 132.45H188.906V138.85H194.906H200.906V132.45H194.906ZM194.906 138.85V132.85H189.756V138.85V144.85H194.906V138.85ZM189.756 138.85H195.756V102H189.756H183.756V138.85H189.756ZM189.756 102V108H194.906V102V96H189.756V102ZM194.906 102H188.906V118.75H194.906H200.906V102H194.906ZM194.906 118.75L197.848 113.521L197.048 113.071L194.106 118.3L191.165 123.529L191.965 123.979L194.906 118.75ZM194.106 118.3L199.969 119.575C199.942 119.701 199.903 119.798 199.873 119.858C199.844 119.916 199.833 119.92 199.87 119.875L195.206 116.1L190.543 112.325C189.474 113.645 188.637 115.216 188.243 117.025L194.106 118.3ZM195.206 116.1L199.954 119.769C200.066 119.623 200.268 119.415 200.64 119.172L197.356 114.15L194.073 109.128C192.711 110.018 191.479 111.11 190.459 112.431L195.206 116.1ZM197.356 114.15L200.684 119.142C201.123 118.85 201.589 118.625 202.098 118.46L200.256 112.75L198.414 107.04C196.857 107.542 195.39 108.25 194.028 109.158L197.356 114.15ZM200.256 112.75L202.263 118.405C202.67 118.26 203.042 118.2 203.406 118.2V112.2V106.2C201.637 106.2 199.909 106.507 198.25 107.095L200.256 112.75ZM203.406 112.2V118.2C204.737 118.2 205.7 118.512 206.485 119.012L209.706 113.95L212.928 108.888C210.046 107.054 206.808 106.2 203.406 106.2V112.2ZM209.706 113.95L206.485 119.012C207.36 119.569 208.109 120.36 208.725 121.552L214.056 118.8L219.388 116.048C217.87 113.107 215.719 110.665 212.928 108.888L209.706 113.95ZM214.056 118.8L208.743 121.587C209.296 122.642 209.656 123.994 209.656 125.8H215.656H221.656C221.656 122.339 220.95 119.025 219.37 116.013L214.056 118.8ZM215.656 125.8H209.656C209.656 127.604 209.297 128.989 208.725 130.098L214.056 132.85L219.388 135.602C220.949 132.578 221.656 129.263 221.656 125.8H215.656ZM214.056 132.85L208.69 130.167C208.104 131.338 207.367 132.143 206.47 132.73L209.756 137.75L213.042 142.77C215.813 140.957 217.942 138.495 219.423 135.533L214.056 132.85ZM209.756 137.75L206.535 132.688C205.722 133.206 204.785 133.5 203.556 133.5V139.5V145.5C206.928 145.5 210.124 144.628 212.978 142.812L209.756 137.75ZM202.706 134.8V140.8C205.293 140.8 207.797 140.137 210.037 138.706L206.806 133.65L203.576 128.594C203.415 128.697 203.187 128.8 202.706 128.8V134.8ZM206.806 133.65L210.134 138.642C212.207 137.26 213.823 135.42 214.969 133.239L209.656 130.45L204.344 127.661C204.089 128.146 203.805 128.44 203.478 128.658L206.806 133.65ZM209.656 130.45L214.997 133.185C216.183 130.868 216.706 128.361 216.706 125.8H210.706H204.706C204.706 126.706 204.529 127.298 204.316 127.715L209.656 130.45ZM210.706 125.8H216.706C216.706 123.255 216.176 120.76 214.969 118.461L209.656 121.25L204.344 124.039C204.537 124.406 204.706 124.945 204.706 125.8H210.706ZM209.656 121.25L215.049 118.619C213.932 116.331 212.28 114.395 210.087 112.994L206.856 118.05L203.626 123.106C203.832 123.238 204.047 123.436 204.264 123.881L209.656 121.25ZM206.856 118.05L210.087 112.994C207.826 111.55 205.299 110.9 202.706 110.9V116.9V122.9C203.247 122.9 203.486 123.017 203.626 123.106L206.856 118.05ZM202.706 116.9V110.9C200.114 110.9 197.586 111.55 195.326 112.994L198.556 118.05L201.787 123.106C201.926 123.017 202.165 122.9 202.706 122.9V116.9ZM198.556 118.05L195.326 112.994C193.159 114.378 191.512 116.278 190.366 118.515L195.706 121.25L201.047 123.985C201.301 123.489 201.553 123.255 201.787 123.106L198.556 118.05ZM195.706 121.25L190.394 118.461C189.187 120.76 188.656 123.255 188.656 125.8H194.656H200.656C200.656 124.945 200.826 124.406 201.019 124.039L195.706 121.25ZM194.656 125.8H188.656C188.656 128.361 189.179 130.868 190.366 133.185L195.706 130.45L201.047 127.715C200.833 127.298 200.656 126.706 200.656 125.8H194.656ZM195.706 130.45L190.394 133.239C191.539 135.42 193.155 137.26 195.228 138.642L198.556 133.65L201.884 128.658C201.557 128.44 201.273 128.146 201.019 127.661L195.706 130.45ZM198.556 133.65L195.326 138.706C197.586 140.15 200.114 140.8 202.706 140.8V134.8V128.8C202.165 128.8 201.926 128.683 201.787 128.594L198.556 133.65ZM224.674 150.5L219.167 148.118C218.365 149.972 218.55 152.106 219.659 153.794C220.768 155.483 222.653 156.5 224.674 156.5V150.5ZM229.974 138.25L235.973 138.177C235.939 135.346 233.93 132.924 231.154 132.367C228.379 131.81 225.591 133.269 224.467 135.868L229.974 138.25ZM230.024 142.35L224.537 144.778C225.69 147.384 228.517 148.819 231.301 148.213C234.084 147.606 236.058 145.126 236.023 142.277L230.024 142.35ZM216.924 112.75V106.75C214.894 106.75 213.003 107.776 211.895 109.477C210.788 111.177 210.616 113.322 211.437 115.178L216.924 112.75ZM222.924 112.75L228.446 110.404C227.505 108.188 225.331 106.75 222.924 106.75V112.75ZM231.124 132.05L225.602 134.396C225.65 134.51 225.702 134.623 225.757 134.733L231.124 132.05ZM231.724 133.6L226.032 135.497C226.041 135.526 226.051 135.554 226.061 135.582L231.724 133.6ZM232.324 135.6L233.673 141.446C235.242 141.084 236.6 140.107 237.441 138.734C238.281 137.36 238.535 135.707 238.145 134.145L232.324 135.6ZM231.024 135.9L225.417 133.764C224.628 135.835 225.045 138.171 226.5 139.842C227.956 141.512 230.214 142.245 232.373 141.746L231.024 135.9ZM231.774 133.8L226.167 131.664C226.137 131.743 226.108 131.823 226.082 131.903L231.774 133.8ZM232.524 131.7L226.881 129.66C226.864 129.708 226.848 129.755 226.832 129.803L232.524 131.7ZM239.374 112.75V106.75C236.847 106.75 234.59 108.334 233.731 110.71L239.374 112.75ZM245.474 112.75L251.023 115.033C251.784 113.182 251.573 111.073 250.459 109.411C249.345 107.748 247.475 106.75 245.474 106.75V112.75ZM234.674 139L229.125 136.717C229.109 136.756 229.093 136.795 229.078 136.835L234.674 139ZM230.224 150.5V156.5C232.702 156.5 234.925 154.976 235.82 152.665L230.224 150.5ZM224.674 150.5L230.181 152.882L235.481 140.632L229.974 138.25L224.467 135.868L219.167 148.118L224.674 150.5ZM229.974 138.25L223.974 138.323L224.024 142.423L230.024 142.35L236.023 142.277L235.973 138.177L229.974 138.25ZM230.024 142.35L235.511 139.922L222.411 110.322L216.924 112.75L211.437 115.178L224.537 144.778L230.024 142.35ZM216.924 112.75V118.75H222.924V112.75V106.75H216.924V112.75ZM222.924 112.75L217.402 115.096L225.602 134.396L231.124 132.05L236.646 129.704L228.446 110.404L222.924 112.75ZM231.124 132.05L225.757 134.733C225.726 134.672 225.742 134.695 225.803 134.853C225.86 135 225.936 135.21 226.032 135.497L231.724 133.6L237.416 131.703C237.162 130.94 236.854 130.094 236.49 129.367L231.124 132.05ZM231.724 133.6L226.061 135.582C226.235 136.08 226.382 136.571 226.503 137.055L232.324 135.6L238.145 134.145C237.932 133.295 237.679 132.453 237.387 131.618L231.724 133.6ZM232.324 135.6L230.975 129.754L229.675 130.054L231.024 135.9L232.373 141.746L233.673 141.446L232.324 135.6ZM231.024 135.9L236.631 138.036C236.927 137.258 237.205 136.479 237.466 135.697L231.774 133.8L226.082 131.903C225.876 132.521 225.654 133.142 225.417 133.764L231.024 135.9ZM231.774 133.8L237.381 135.936C237.677 135.158 237.955 134.379 238.216 133.597L232.524 131.7L226.832 129.803C226.626 130.421 226.404 131.042 226.167 131.664L231.774 133.8ZM232.524 131.7L238.166 133.74L245.016 114.79L239.374 112.75L233.731 110.71L226.881 129.66L232.524 131.7ZM239.374 112.75V118.75H245.474V112.75V106.75H239.374V112.75ZM245.474 112.75L239.925 110.467L229.125 136.717L234.674 139L240.223 141.283L251.023 115.033L245.474 112.75ZM234.674 139L229.078 136.835L224.628 148.335L230.224 150.5L235.82 152.665L240.27 141.165L234.674 139ZM230.224 150.5V144.5H224.674V150.5V156.5H230.224V150.5ZM270.34 128.75L264.606 130.515C265.222 132.517 266.837 134.052 268.868 134.566C270.898 135.081 273.05 134.498 274.544 133.031L270.34 128.75ZM268.14 121.6L263.867 117.388C262.318 118.96 261.756 121.255 262.406 123.365L268.14 121.6ZM285.49 104V98C283.884 98 282.345 98.644 281.217 99.7878L285.49 104ZM295.54 104L299.744 108.281C301.483 106.573 302.016 103.984 301.094 101.729C300.171 99.4736 297.977 98 295.54 98V104ZM264.14 139H258.14C258.14 142.314 260.827 145 264.14 145V139ZM264.14 104V98C260.827 98 258.14 100.686 258.14 104H264.14ZM272.64 104H278.64C278.64 100.686 275.954 98 272.64 98V104ZM272.64 139V145C275.954 145 278.64 142.314 278.64 139H272.64ZM286.59 139L281.814 142.631C282.948 144.124 284.715 145 286.59 145V139ZM273.59 121.9L269.676 117.353C267.272 119.422 266.894 123.006 268.814 125.531L273.59 121.9ZM279.34 116.95L284.076 113.266C283.068 111.969 281.571 111.143 279.936 110.98C278.301 110.816 276.671 111.331 275.426 112.403L279.34 116.95ZM296.49 139V145C298.782 145 300.873 143.695 301.88 141.636C302.887 139.578 302.633 137.125 301.226 135.316L296.49 139ZM270.34 128.75L276.075 126.985L273.875 119.835L268.14 121.6L262.406 123.365L264.606 130.515L270.34 128.75ZM268.14 121.6L272.413 125.812L289.763 108.212L285.49 104L281.217 99.7878L263.867 117.388L268.14 121.6ZM285.49 104V110H295.54V104V98H285.49V104ZM295.54 104L291.336 99.7193L266.136 124.469L270.34 128.75L274.544 133.031L299.744 108.281L295.54 104ZM264.14 139H270.14V104H264.14H258.14V139H264.14ZM264.14 104V110H272.64V104V98H264.14V104ZM272.64 104H266.64V139H272.64H278.64V104H272.64ZM272.64 139V133H264.14V139V145H272.64V139ZM286.59 139L291.367 135.369L278.367 118.269L273.59 121.9L268.814 125.531L281.814 142.631L286.59 139ZM273.59 121.9L277.505 126.447L283.255 121.497L279.34 116.95L275.426 112.403L269.676 117.353L273.59 121.9ZM279.34 116.95L274.604 120.634L291.754 142.684L296.49 139L301.226 135.316L284.076 113.266L279.34 116.95ZM296.49 139V133H286.59V139V145H296.49V139ZM301.807 137.7L298.392 142.633C298.428 142.658 298.464 142.683 298.501 142.707L301.807 137.7ZM297.657 132.8L292.273 135.449C292.279 135.46 292.285 135.472 292.29 135.483L297.657 132.8ZM297.657 118.55L292.29 115.867L297.657 118.55ZM301.907 113.7L305.17 118.735C305.192 118.721 305.214 118.707 305.235 118.692L301.907 113.7ZM311.507 112.45L309.501 118.105C309.519 118.111 309.538 118.118 309.557 118.124L311.507 112.45ZM314.307 114L310.466 118.609C310.504 118.641 310.543 118.673 310.583 118.704L314.307 114ZM316.357 116.25L311.335 119.533C311.355 119.564 311.375 119.594 311.395 119.624L316.357 116.25ZM317.607 118.95L316.885 124.906C318.871 125.147 320.847 124.382 322.153 122.866C323.459 121.35 323.923 119.283 323.391 117.354L317.607 118.95ZM315.957 118.75H309.957C309.957 121.784 312.223 124.341 315.235 124.706L315.957 118.75ZM315.957 112.45V106.45C312.643 106.45 309.957 109.136 309.957 112.45H315.957ZM323.907 112.45H329.907C329.907 109.136 327.221 106.45 323.907 106.45V112.45ZM323.907 139V145C327.221 145 329.907 142.314 329.907 139H323.907ZM315.807 139H309.807C309.807 142.314 312.493 145 315.807 145V139ZM315.807 132.6L315.64 126.602C312.393 126.693 309.807 129.351 309.807 132.6H315.807ZM317.607 132.55L323.376 134.198C323.901 132.36 323.519 130.381 322.346 128.871C321.174 127.36 319.352 126.499 317.44 126.552L317.607 132.55ZM316.307 135.2L311.438 131.694L311.438 131.694L316.307 135.2ZM314.107 137.4L310.567 132.556L310.567 132.556L314.107 137.4ZM311.207 138.9L309.257 133.226L311.207 138.9ZM313.207 131.85L316.404 136.927L316.404 136.927L313.207 131.85ZM315.307 129.45L320.708 132.063C320.719 132.041 320.729 132.019 320.74 131.997L315.307 129.45ZM315.307 122L309.874 124.547C309.885 124.569 309.895 124.591 309.906 124.613L315.307 122ZM313.207 119.55L309.879 124.542C309.922 124.571 309.966 124.6 310.01 124.627L313.207 119.55ZM306.857 119.55L310.141 124.572C310.155 124.562 310.17 124.552 310.185 124.542L306.857 119.55ZM304.807 122L310.208 124.613C310.219 124.591 310.229 124.569 310.24 124.547L304.807 122ZM304.807 129.45L299.374 131.997C299.385 132.019 299.395 132.041 299.406 132.063L304.807 129.45ZM306.857 131.85L303.574 136.872C303.602 136.891 303.631 136.909 303.66 136.927L306.857 131.85ZM307.807 139.45V133.45C306.681 133.45 305.844 133.176 305.113 132.693L301.807 137.7L298.501 142.707C301.304 144.558 304.466 145.45 307.807 145.45V139.45ZM301.807 137.7L305.222 132.767C304.396 132.195 303.65 131.37 303.024 130.117L297.657 132.8L292.29 135.483C293.73 138.363 295.751 140.805 298.392 142.633L301.807 137.7ZM297.657 132.8L303.041 130.151C302.461 128.973 302.107 127.531 302.107 125.7H296.107H290.107C290.107 129.136 290.786 132.427 292.273 135.449L297.657 132.8ZM296.107 125.7H302.107C302.107 123.775 302.472 122.337 303.024 121.233L297.657 118.55L292.29 115.867C290.776 118.896 290.107 122.225 290.107 125.7H296.107ZM297.657 118.55L303.024 121.233C303.616 120.048 304.338 119.275 305.17 118.735L301.907 113.7L298.644 108.665C295.876 110.459 293.764 112.919 292.29 115.867L297.657 118.55ZM301.907 113.7L305.235 118.692C305.986 118.192 306.863 117.9 308.057 117.9V111.9V105.9C304.651 105.9 301.428 106.808 298.579 108.708L301.907 113.7ZM308.057 111.9V117.9C308.744 117.9 309.203 117.999 309.501 118.105L311.507 112.45L313.513 106.795C311.744 106.168 309.903 105.9 308.057 105.9V111.9ZM311.507 112.45L309.557 118.124C309.991 118.273 310.271 118.447 310.466 118.609L314.307 114L318.148 109.391C316.743 108.22 315.156 107.36 313.458 106.776L311.507 112.45ZM314.307 114L310.583 118.704C310.869 118.931 311.117 119.199 311.335 119.533L316.357 116.25L321.379 112.967C320.464 111.568 319.345 110.336 318.031 109.296L314.307 114ZM316.357 116.25L311.395 119.624C311.594 119.916 311.732 120.216 311.823 120.546L317.607 118.95L323.391 117.354C322.949 115.751 322.253 114.25 321.319 112.876L316.357 116.25ZM317.607 118.95L318.329 112.994L316.679 112.794L315.957 118.75L315.235 124.706L316.885 124.906L317.607 118.95ZM315.957 118.75H321.957V112.45H315.957H309.957V118.75H315.957ZM315.957 112.45V118.45H323.907V112.45V106.45H315.957V112.45ZM323.907 112.45H317.907V139H323.907H329.907V112.45H323.907ZM323.907 139V133H315.807V139V145H323.907V139ZM315.807 139H321.807V132.6H315.807H309.807V139H315.807ZM315.807 132.6L315.974 138.598L317.774 138.548L317.607 132.55L317.44 126.552L315.64 126.602L315.807 132.6ZM317.607 132.55L311.838 130.902C311.772 131.131 311.656 131.391 311.438 131.694L316.307 135.2L321.176 138.706C322.158 137.343 322.908 135.836 323.376 134.198L317.607 132.55ZM316.307 135.2L311.438 131.694C311.224 131.991 310.946 132.279 310.567 132.556L314.107 137.4L317.647 142.244C319.001 141.255 320.19 140.076 321.176 138.706L316.307 135.2ZM314.107 137.4L310.567 132.556C310.21 132.817 309.784 133.045 309.257 133.226L311.207 138.9L313.158 144.574C314.764 144.022 316.271 143.25 317.647 142.244L314.107 137.4ZM311.207 138.9L309.257 133.226C308.857 133.363 308.386 133.45 307.807 133.45V139.45V145.45C309.628 145.45 311.424 145.17 313.158 144.574L311.207 138.9ZM310.007 132.7V138.7C312.187 138.7 314.402 138.188 316.404 136.927L313.207 131.85L310.01 126.773C310.048 126.749 310.085 126.729 310.12 126.714C310.155 126.699 310.18 126.692 310.192 126.689C310.216 126.682 310.164 126.7 310.007 126.7V132.7ZM313.207 131.85L316.404 136.927C318.33 135.714 319.759 134.025 320.708 132.063L315.307 129.45L309.906 126.837C309.888 126.874 309.877 126.892 309.874 126.895C309.872 126.898 309.878 126.89 309.892 126.874C309.906 126.858 309.925 126.839 309.948 126.819C309.971 126.799 309.992 126.784 310.01 126.773L313.207 131.85ZM315.307 129.45L320.74 131.997C321.685 129.979 322.057 127.826 322.057 125.7H316.057H310.057C310.057 126.44 309.929 126.787 309.874 126.903L315.307 129.45ZM316.057 125.7H322.057C322.057 123.581 321.688 121.412 320.708 119.387L315.307 122L309.906 124.613C309.926 124.655 310.057 124.952 310.057 125.7H316.057ZM315.307 122L320.74 119.453C319.807 117.462 318.379 115.716 316.404 114.473L313.207 119.55L310.01 124.627C309.981 124.609 309.95 124.586 309.92 124.561C309.891 124.535 309.868 124.511 309.851 124.492C309.817 124.452 309.832 124.457 309.874 124.547L315.307 122ZM313.207 119.55L316.535 114.558C314.516 113.212 312.254 112.65 310.007 112.65V118.65V124.65C310.136 124.65 310.159 124.665 310.108 124.651C310.083 124.644 310.047 124.632 310.004 124.612C309.961 124.592 309.918 124.569 309.879 124.542L313.207 119.55ZM310.007 118.65V112.65C307.757 112.65 305.521 113.23 303.529 114.558L306.857 119.55L310.185 124.542C310.153 124.564 310.116 124.585 310.075 124.604C310.034 124.623 309.997 124.636 309.968 124.644C309.907 124.662 309.91 124.65 310.007 124.65V118.65ZM306.857 119.55L303.574 114.528C301.651 115.785 300.28 117.52 299.374 119.453L304.807 122L310.24 124.547C310.293 124.433 310.32 124.41 310.296 124.438C310.285 124.451 310.265 124.473 310.237 124.498C310.208 124.524 310.175 124.549 310.141 124.572L306.857 119.55ZM304.807 122L299.406 119.387C298.426 121.412 298.057 123.581 298.057 125.7H304.057H310.057C310.057 124.952 310.188 124.655 310.208 124.613L304.807 122ZM304.057 125.7H298.057C298.057 127.826 298.429 129.979 299.374 131.997L304.807 129.45L310.24 126.903C310.185 126.787 310.057 126.44 310.057 125.7H304.057ZM304.807 129.45L299.406 132.063C300.327 133.967 301.699 135.646 303.574 136.872L306.857 131.85L310.141 126.828C310.164 126.843 310.187 126.861 310.21 126.881C310.232 126.9 310.247 126.917 310.257 126.928C310.266 126.939 310.266 126.94 310.258 126.927C310.249 126.915 310.232 126.886 310.208 126.837L304.807 129.45ZM306.857 131.85L303.66 136.927C305.636 138.172 307.825 138.7 310.007 138.7V132.7V126.7C309.881 126.7 309.848 126.685 309.883 126.695C309.899 126.699 309.925 126.707 309.958 126.722C309.991 126.736 310.023 126.753 310.054 126.773L306.857 131.85ZM333.166 139H327.166C327.166 142.314 329.852 145 333.166 145V139ZM333.166 105.75V99.75C329.852 99.75 327.166 102.436 327.166 105.75H333.166ZM341.166 105.75H347.166C347.166 102.436 344.48 99.75 341.166 99.75V105.75ZM341.166 139V145C344.48 145 347.166 142.314 347.166 139H341.166ZM328.466 119.45H322.466C322.466 122.764 325.152 125.45 328.466 125.45V119.45ZM328.466 112.45V106.45C325.152 106.45 322.466 109.136 322.466 112.45H328.466ZM346.316 112.45H352.316C352.316 109.136 349.63 106.45 346.316 106.45V112.45ZM346.316 119.45V125.45C349.63 125.45 352.316 122.764 352.316 119.45H346.316ZM333.166 139H339.166V105.75H333.166H327.166V139H333.166ZM333.166 105.75V111.75H341.166V105.75V99.75H333.166V105.75ZM341.166 105.75H335.166V139H341.166H347.166V105.75H341.166ZM341.166 139V133H333.166V139V145H341.166V139ZM328.466 119.45H334.466V112.45H328.466H322.466V119.45H328.466ZM328.466 112.45V118.45H346.316V112.45V106.45H328.466V112.45ZM346.316 112.45H340.316V119.45H346.316H352.316V112.45H346.316ZM346.316 119.45V113.45H328.466V119.45V125.45H346.316V119.45ZM351.338 139H345.338C345.338 142.314 348.024 145 351.338 145V139ZM351.338 112.45V106.45C348.024 106.45 345.338 109.136 345.338 112.45H351.338ZM359.338 112.45H365.338C365.338 109.136 362.652 106.45 359.338 106.45V112.45ZM359.338 139V145C362.652 145 365.338 142.314 365.338 139H359.338ZM351.788 106.15L347.824 110.654C347.888 110.71 347.952 110.765 348.018 110.818L351.788 106.15ZM358.838 100.05L354.874 104.554C354.909 104.585 354.944 104.615 354.979 104.644L358.838 100.05ZM358.788 106.05L354.812 101.556C354.783 101.582 354.754 101.608 354.726 101.634L358.788 106.05ZM351.338 139H357.338V112.45H351.338H345.338V139H351.338ZM351.338 112.45V118.45H359.338V112.45V106.45H351.338V112.45ZM359.338 112.45H353.338V139H359.338H365.338V112.45H359.338ZM359.338 139V133H351.338V139V145H359.338V139ZM355.338 107.2V101.2C355.045 101.2 354.962 101.165 355.027 101.184C355.063 101.194 355.135 101.219 355.233 101.269C355.331 101.32 355.443 101.39 355.558 101.482L351.788 106.15L348.018 110.818C350.27 112.637 352.941 113.2 355.338 113.2V107.2ZM351.788 106.15L355.752 101.646C356.04 101.9 356.275 102.233 356.415 102.581C356.545 102.903 356.538 103.096 356.538 103.05H350.538H344.538C344.538 105.729 345.437 108.553 347.824 110.654L351.788 106.15ZM350.538 103.05H356.538C356.538 103.186 356.51 103.477 356.353 103.832C356.194 104.193 355.978 104.448 355.813 104.594L351.838 100.1L347.862 95.606C345.655 97.5588 344.538 100.204 344.538 103.05H350.538ZM351.838 100.1L355.813 104.594C355.598 104.784 355.38 104.89 355.236 104.938C355.11 104.979 355.121 104.95 355.338 104.95V98.95V92.95C352.811 92.95 350.095 93.6308 347.862 95.606L351.838 100.1ZM355.338 98.95V104.95C355.61 104.95 355.652 104.985 355.539 104.949C355.405 104.907 355.147 104.795 354.874 104.554L358.838 100.05L362.802 95.5457C360.539 93.5542 357.78 92.95 355.338 92.95V98.95ZM358.838 100.05L354.979 104.644C354.664 104.38 354.399 104.022 354.237 103.633C354.086 103.271 354.088 103.037 354.088 103.05H360.088H366.088C366.088 100.358 365.154 97.5197 362.697 95.4558L358.838 100.05ZM360.088 103.05H354.088C354.088 102.954 354.108 102.685 354.258 102.339C354.412 101.984 354.629 101.718 354.812 101.556L358.788 106.05L362.763 110.544C365.01 108.556 366.088 105.874 366.088 103.05H360.088ZM358.788 106.05L354.726 101.634C354.976 101.404 355.232 101.277 355.403 101.22C355.553 101.171 355.557 101.2 355.338 101.2V107.2V113.2C357.852 113.2 360.613 112.524 362.85 110.466L358.788 106.05ZM371.855 137.75L368.948 142.999C368.968 143.01 368.989 143.022 369.01 143.033L371.855 137.75ZM366.805 132.9L361.616 135.913C361.623 135.925 361.63 135.937 361.637 135.95L366.805 132.9ZM366.005 120.25L360.419 118.059L360.419 118.059L366.005 120.25ZM368.805 115.85L373.105 120.034C373.124 120.015 373.142 119.996 373.16 119.976L368.805 115.85ZM373.055 112.95L375.322 118.505C375.341 118.497 375.359 118.49 375.378 118.482L373.055 112.95ZM383.605 112.9L381.212 118.402C381.227 118.409 381.241 118.415 381.255 118.421L383.605 112.9ZM387.655 115.7L392.017 111.58L387.655 115.7ZM391.055 125.3L385.058 125.093C385.057 125.116 385.057 125.138 385.056 125.161L391.055 125.3ZM391.005 127.45V133.45C394.264 133.45 396.927 130.848 397.003 127.589L391.005 127.45ZM369.855 127.45L364.042 128.936C364.72 131.592 367.113 133.45 369.855 133.45V127.45ZM368.705 122.95V116.95C366.852 116.95 365.102 117.806 363.966 119.27C362.829 120.733 362.433 122.64 362.892 124.436L368.705 122.95ZM384.505 122.95L388.976 126.951C390.554 125.187 390.948 122.661 389.982 120.501C389.016 118.341 386.871 116.95 384.505 116.95V122.95ZM383.655 123.9H377.655C377.655 126.388 379.19 128.617 381.513 129.505C383.837 130.393 386.467 129.755 388.126 127.901L383.655 123.9ZM383.655 122.9H389.655C389.655 122.74 389.648 122.581 389.636 122.422L383.655 122.9ZM382.855 120.7L377.824 123.97C377.888 124.068 377.955 124.165 378.024 124.259L382.855 120.7ZM381.105 119.15L378.421 124.517L378.421 124.517L381.105 119.15ZM375.255 119.4L378.169 124.645C378.19 124.633 378.211 124.621 378.232 124.609L375.255 119.4ZM373.205 121.65L378.608 124.258C378.619 124.235 378.631 124.211 378.642 124.187L373.205 121.65ZM373.405 129.1L368.137 131.973C368.172 132.037 368.208 132.101 368.246 132.163L373.405 129.1ZM376.105 131.6L373.361 136.936C373.381 136.946 373.401 136.956 373.421 136.967L376.105 131.6ZM383.355 132L381.271 126.374C381.247 126.382 381.224 126.391 381.201 126.4L383.355 132ZM386.255 130.3L391.153 126.834C390.208 125.499 388.758 124.607 387.14 124.366C385.522 124.124 383.875 124.554 382.582 125.556L386.255 130.3ZM390.005 135.6L393.945 140.124C396.268 138.102 396.682 134.649 394.903 132.134L390.005 135.6ZM386.705 137.8L389.326 143.197L389.326 143.197L386.705 137.8ZM383.105 139.05L381.837 133.186C381.774 133.199 381.712 133.214 381.649 133.229L383.105 139.05ZM379.505 139.5V133.5C377.374 133.5 375.838 133.081 374.699 132.467L371.855 137.75L369.01 143.033C372.204 144.753 375.769 145.5 379.505 145.5V139.5ZM371.855 137.75L374.762 132.501C373.483 131.793 372.601 130.916 371.972 129.85L366.805 132.9L361.637 135.95C363.408 138.95 365.893 141.307 368.948 142.999L371.855 137.75ZM366.805 132.9L371.993 129.887C371.378 128.827 371.005 127.536 371.005 125.85H365.005H359.005C359.005 129.431 359.832 132.84 361.616 135.913L366.805 132.9ZM365.005 125.85H371.005C371.005 124.481 371.227 123.368 371.591 122.441L366.005 120.25L360.419 118.059C359.449 120.532 359.005 123.152 359.005 125.85H365.005ZM366.005 120.25L371.591 122.441C371.984 121.438 372.495 120.661 373.105 120.034L368.805 115.85L364.504 111.666C362.714 113.506 361.359 115.662 360.419 118.059L366.005 120.25ZM368.805 115.85L373.16 119.976C373.767 119.336 374.469 118.853 375.322 118.505L373.055 112.95L370.787 107.395C368.373 108.38 366.242 109.831 364.449 111.724L368.805 115.85ZM373.055 112.95L375.378 118.482C376.247 118.117 377.265 117.9 378.505 117.9V111.9V105.9C375.811 105.9 373.196 106.383 370.731 107.418L373.055 112.95ZM378.505 111.9V117.9C379.644 117.9 380.517 118.1 381.212 118.402L383.605 112.9L385.997 107.398C383.625 106.366 381.098 105.9 378.505 105.9V111.9ZM383.605 112.9L381.255 118.421C382.086 118.775 382.745 119.239 383.293 119.82L387.655 115.7L392.017 111.58C390.298 109.761 388.256 108.359 385.954 107.379L383.605 112.9ZM387.655 115.7L383.293 119.82C383.838 120.397 384.287 121.106 384.623 122.019L390.255 119.95L395.887 117.881C395.022 115.527 393.738 113.403 392.017 111.58L387.655 115.7ZM390.255 119.95L384.623 122.019C384.927 122.847 385.101 123.848 385.058 125.093L391.055 125.3L397.051 125.507C397.142 122.885 396.782 120.319 395.887 117.881L390.255 119.95ZM391.055 125.3L385.056 125.161L385.006 127.311L391.005 127.45L397.003 127.589L397.053 125.439L391.055 125.3ZM391.005 127.45V121.45H369.855V127.45V133.45H391.005V127.45ZM369.855 127.45L375.668 125.964L374.518 121.464L368.705 122.95L362.892 124.436L364.042 128.936L369.855 127.45ZM368.705 122.95V128.95H384.505V122.95V116.95H368.705V122.95ZM384.505 122.95L380.033 118.949L379.183 119.899L383.655 123.9L388.126 127.901L388.976 126.951L384.505 122.95ZM383.655 123.9H389.655V122.9H383.655H377.655V123.9H383.655ZM383.655 122.9L389.636 122.422C389.486 120.547 388.857 118.731 387.685 117.141L382.855 120.7L378.024 124.259C377.92 124.118 377.83 123.952 377.766 123.775C377.703 123.601 377.68 123.461 377.674 123.378L383.655 122.9ZM382.855 120.7L387.885 117.43C386.851 115.839 385.445 114.612 383.788 113.783L381.105 119.15L378.421 124.517C378.345 124.478 378.234 124.41 378.114 124.304C377.993 124.197 377.896 124.08 377.824 123.97L382.855 120.7ZM381.105 119.15L383.788 113.783C382.113 112.946 380.34 112.6 378.605 112.6V118.6V124.6C378.678 124.6 378.685 124.607 378.641 124.597C378.594 124.587 378.515 124.563 378.421 124.517L381.105 119.15ZM378.605 118.6V112.6C376.479 112.6 374.29 113.041 372.278 114.191L375.255 119.4L378.232 124.609C378.17 124.644 378.145 124.646 378.186 124.636C378.232 124.625 378.363 124.6 378.605 124.6V118.6ZM375.255 119.4L372.341 114.155C370.254 115.314 368.728 117.054 367.768 119.113L373.205 121.65L378.642 124.187C378.643 124.186 378.633 124.206 378.61 124.242C378.586 124.278 378.55 124.326 378.502 124.378C378.399 124.492 378.279 124.584 378.169 124.645L375.255 119.4ZM373.205 121.65L367.801 119.042C366.833 121.047 366.505 123.202 366.505 125.25H372.505H378.505C378.505 124.431 378.643 124.186 378.608 124.258L373.205 121.65ZM372.505 125.25H366.505C366.505 127.549 366.981 129.852 368.137 131.973L373.405 129.1L378.672 126.227C378.629 126.148 378.505 125.885 378.505 125.25H372.505ZM373.405 129.1L368.246 132.163C369.488 134.256 371.252 135.851 373.361 136.936L376.105 131.6L378.849 126.264C378.624 126.149 378.588 126.077 378.564 126.037L373.405 129.1ZM376.105 131.6L373.421 136.967C375.616 138.064 377.989 138.5 380.355 138.5V132.5V126.5C379.453 126.5 378.993 126.336 378.788 126.233L376.105 131.6ZM380.355 132.5V138.5C382.067 138.5 383.821 138.249 385.509 137.6L383.355 132L381.201 126.4C381.155 126.418 380.909 126.5 380.355 126.5V132.5ZM383.355 132L385.439 137.626C387.074 137.021 388.574 136.092 389.928 135.044L386.255 130.3L382.582 125.556C381.869 126.108 381.435 126.313 381.271 126.374L383.355 132ZM386.255 130.3L381.357 133.766L385.107 139.066L390.005 135.6L394.903 132.134L391.153 126.834L386.255 130.3ZM390.005 135.6L386.064 131.076C385.407 131.647 384.747 132.08 384.083 132.403L386.705 137.8L389.326 143.197C390.995 142.386 392.535 141.353 393.945 140.124L390.005 135.6ZM386.705 137.8L384.083 132.403C383.335 132.766 382.589 133.023 381.837 133.186L383.105 139.05L384.373 144.914C386.087 144.544 387.741 143.967 389.326 143.197L386.705 137.8ZM383.105 139.05L381.649 133.229C380.911 133.414 380.199 133.5 379.505 133.5V139.5V145.5C381.21 145.5 382.899 145.286 384.56 144.871L383.105 139.05Z" fill="#893F4E" mask="url(#path-2-outside-1_211_199)"/>
</svg>
